<svg width="1284" height="786" viewBox="0 0 1284 786" fill="none" xmlns="http://www.w3.org/2000/svg">
<g clip-path="url(#clip0_2_8886)">
<path opacity="0.2" d="M723.715 786C909.611 786 1060.31 781.513 1060.31 775.978C1060.31 770.443 909.611 765.957 723.715 765.957C537.818 765.957 387.119 770.443 387.119 775.978C387.119 781.513 537.818 786 723.715 786Z" fill="#0B2252"/>
<path d="M927.842 38.6802C930.263 36.253 933.14 34.3291 936.307 33.0195C939.475 31.7099 942.87 31.0404 946.298 31.0497H972.197C974.115 22.2459 978.986 14.3633 986.001 8.71091C993.016 3.0585 1001.75 -0.0236206 1010.76 -0.0236206C1019.77 -0.0236206 1028.51 3.0585 1035.52 8.71091C1042.54 14.3633 1047.41 22.2459 1049.32 31.0497H1056.28C1059.71 31.0543 1063.09 31.7328 1066.25 33.0465C1069.41 34.3603 1072.28 36.2834 1074.69 38.7063C1077.11 41.1291 1079.02 44.0041 1080.33 47.1672C1081.63 50.3303 1082.3 53.7195 1082.3 57.1413C1082.3 64.0518 1079.55 70.6794 1074.67 75.5659C1069.78 80.4524 1063.16 83.1977 1056.25 83.1977H946.263C939.353 83.1977 932.727 80.4527 927.84 75.5665C922.954 70.6802 920.207 64.0527 920.205 57.1413C920.197 53.7122 920.868 50.3154 922.178 47.1469C923.489 43.9784 925.414 41.1009 927.842 38.6802Z" fill="#E9F3FC"/>
<path d="M611.135 77.9407C608.864 75.6629 606.166 73.8566 603.195 72.6255C600.223 71.3945 597.038 70.763 593.822 70.7673H569.487C567.679 62.5011 563.101 55.1016 556.511 49.7961C549.921 44.4905 541.716 41.5978 533.257 41.5978C524.798 41.5978 516.593 44.4905 510.003 49.7961C503.413 55.1016 498.835 62.5011 497.027 70.7673H490.48C483.989 70.7696 477.765 73.3498 473.175 77.9407C468.586 82.5316 466.006 88.7576 466.004 95.2501C466.006 101.743 468.586 107.969 473.175 112.56C477.765 117.15 483.989 119.731 490.48 119.733H593.822C597.039 119.738 600.225 119.108 603.198 117.879C606.171 116.651 608.873 114.848 611.149 112.574C613.425 110.3 615.23 107.599 616.461 104.627C617.692 101.654 618.326 98.4678 618.324 95.2501C618.326 92.0334 617.691 88.8481 616.458 85.8775C615.224 82.9069 613.415 80.2096 611.135 77.9407Z" fill="#E9F3FC"/>
<path d="M1283.5 409.756V548.389C1157.5 526.579 988.14 506.614 790.041 506.614C352.748 506.614 9.77188 603.825 9.77188 603.825C-15.7145 549.4 12.5226 392.648 78.9014 355.92C145.28 319.191 202.932 392.648 255.364 366.442C307.795 340.237 258.73 108.516 339.214 93.6062C419.698 78.6967 470.337 227.774 568.696 227.774C667.056 227.774 652.186 78.6967 767.182 72.7276C882.178 66.7586 879.155 225.365 948.346 225.365C1017.54 225.365 989.484 161.763 1097.94 159.899C1206.4 158.035 1236.32 384.35 1282.77 409.378L1283.5 409.756Z" fill="url(#paint0_linear_2_8886)"/>
<path d="M988.869 237.233H487.174C468.958 237.233 454.191 252.004 454.191 270.225V567.65C454.191 585.871 468.958 600.643 487.174 600.643H988.869C1007.08 600.643 1021.85 585.871 1021.85 567.65V270.225C1021.85 252.004 1007.08 237.233 988.869 237.233Z" fill="white"/>
<path d="M995.46 603.807H480.583C472.747 603.798 465.235 600.68 459.694 595.138C454.153 589.596 451.037 582.081 451.027 574.243V263.632C451.034 255.794 454.15 248.278 459.692 242.735C465.233 237.192 472.746 234.075 480.583 234.068H995.46C1003.3 234.078 1010.81 237.195 1016.35 242.738C1021.89 248.28 1025.01 255.794 1025.01 263.632V574.243C1025.01 582.081 1021.89 589.596 1016.35 595.138C1010.81 600.68 1003.3 603.798 995.46 603.807ZM480.583 240.398C474.424 240.402 468.518 242.852 464.163 247.208C459.808 251.564 457.36 257.472 457.355 263.632V574.243C457.362 580.403 459.811 586.309 464.166 590.665C468.52 595.021 474.424 597.471 480.583 597.478H995.46C1001.62 597.471 1007.52 595.021 1011.88 590.665C1016.23 586.309 1018.68 580.403 1018.69 574.243V263.632C1018.68 257.472 1016.23 251.566 1011.88 247.211C1007.52 242.855 1001.62 240.405 995.46 240.398H480.583Z" fill="#E3ECF5"/>
<path d="M688.631 344.069C701.046 330.83 718.105 324.214 739.806 324.219C759.867 324.219 775.932 329.878 788.002 341.195C800.071 352.512 806.106 366.979 806.106 384.596C806.106 395.256 803.918 403.91 799.541 410.556C795.164 417.201 786.197 426.962 772.64 439.838C762.773 449.215 756.352 457.142 753.375 463.618C750.399 470.094 748.911 479.679 748.911 492.373H722.027C722.027 477.985 723.738 466.387 727.16 457.578C730.581 448.77 738.198 438.681 750.01 427.311L762.313 415.391C765.78 412.24 768.802 408.632 771.295 404.666C775.325 398.629 777.506 391.547 777.57 384.288C777.727 374.943 774.524 365.852 768.544 358.671C762.533 351.398 752.593 347.762 738.725 347.762C721.57 347.762 709.706 354 703.132 366.478C699.429 373.423 697.323 383.435 696.813 396.516H669.965C669.965 374.803 676.187 357.32 688.631 344.069ZM721.447 517.427H751.477V548.82H721.421L721.447 517.427Z" fill="#58CFAA"/>
<path d="M971.073 286.313H420.972C420.133 286.313 419.329 285.979 418.735 285.386C418.142 284.792 417.809 283.987 417.809 283.148C417.809 282.309 418.142 281.504 418.735 280.91C419.329 280.317 420.133 279.983 420.972 279.983H971.073C971.912 279.983 972.717 280.317 973.31 280.91C973.904 281.504 974.237 282.309 974.237 283.148C974.237 283.987 973.904 284.792 973.31 285.386C972.717 285.979 971.912 286.313 971.073 286.313Z" fill="#E3ECF5"/>
<path d="M490.512 262.633C491.077 259.149 488.712 255.867 485.229 255.301C481.746 254.735 478.464 257.101 477.899 260.585C477.333 264.07 479.699 267.352 483.182 267.918C486.665 268.483 489.947 266.118 490.512 262.633Z" fill="#E3ECF5"/>
<path d="M516.174 263.041C516.984 259.605 514.857 256.163 511.423 255.352C507.989 254.542 504.548 256.669 503.737 260.104C502.927 263.54 505.054 266.982 508.488 267.793C511.922 268.603 515.363 266.476 516.174 263.041Z" fill="#E3ECF5"/>
<path d="M542.092 262.632C542.657 259.148 540.292 255.865 536.809 255.299C533.326 254.734 530.044 257.1 529.479 260.584C528.913 264.068 531.279 267.351 534.762 267.916C538.245 268.482 541.527 266.116 542.092 262.632Z" fill="#E3ECF5"/>
<path d="M300.65 546.288C288.047 545.919 274.363 541.523 274.697 521.225C275.031 500.927 289.638 497.815 291.167 482.624C292.696 467.433 292.731 453.368 300.65 453.218C308.568 453.069 303.558 459.548 307.241 466.572C310.923 473.596 318.068 482.589 316.688 495.722C315.309 508.856 324.651 513.876 324.158 524.61C323.666 535.343 316.961 546.798 300.65 546.288Z" fill="#DAEEFF"/>
<path d="M305.308 494.571C305.205 494.47 305.066 494.413 304.922 494.413C304.777 494.413 304.638 494.47 304.535 494.571C304.434 494.676 304.377 494.816 304.377 494.962C304.377 495.108 304.434 495.248 304.535 495.353C304.535 495.353 307.813 498.659 307.479 509.858C307.198 519.528 302.206 534.526 300.589 539.053C299.095 535.537 297.17 531.634 295.553 528.354C294.455 526.148 293.506 524.232 292.996 523.027C291.124 518.632 293.971 509.366 293.998 509.278C294.042 509.139 294.029 508.989 293.963 508.859C293.896 508.73 293.781 508.632 293.642 508.588C293.503 508.544 293.353 508.556 293.223 508.623C293.094 508.69 292.996 508.805 292.952 508.944C292.829 509.34 289.955 518.684 291.985 523.458C292.513 524.697 293.462 526.614 294.569 528.847C297.522 534.816 301.986 543.791 301.916 547.308C301.819 552.178 301.231 559.158 301.231 559.228C301.223 559.301 301.231 559.374 301.252 559.443C301.273 559.513 301.309 559.577 301.355 559.633C301.402 559.688 301.459 559.734 301.524 559.767C301.588 559.801 301.659 559.821 301.732 559.826C301.869 559.827 302.001 559.775 302.102 559.682C302.203 559.589 302.265 559.462 302.276 559.325C302.276 559.255 302.874 552.231 302.971 547.334C302.971 545.761 302.268 543.317 301.169 540.548C301.89 538.552 308.2 520.882 308.543 509.858C308.973 498.114 305.458 494.703 305.308 494.571Z" fill="#6AC1FF"/>
<path d="M1235.95 493.947C1225.2 493.621 1213.54 489.841 1213.79 472.576C1214.05 455.31 1226.58 452.62 1227.85 439.706C1229.13 426.792 1229.19 414.758 1235.94 414.635C1242.69 414.512 1238.42 420.023 1241.55 426.019C1244.69 432.014 1250.78 439.671 1249.6 450.862C1248.43 462.053 1256.4 466.343 1255.98 475.477C1255.55 484.611 1249.85 494.36 1235.95 493.947Z" fill="#DAEEFF"/>
<path d="M1239.92 449.851C1239.88 449.808 1239.82 449.773 1239.77 449.75C1239.71 449.727 1239.65 449.714 1239.59 449.714C1239.53 449.714 1239.47 449.727 1239.41 449.75C1239.35 449.773 1239.3 449.808 1239.26 449.851C1239.22 449.894 1239.18 449.946 1239.16 450.002C1239.13 450.059 1239.12 450.12 1239.12 450.181C1239.12 450.242 1239.13 450.303 1239.16 450.359C1239.18 450.416 1239.22 450.467 1239.26 450.51C1239.26 450.51 1242.05 453.324 1241.77 462.879C1241.53 471.134 1237.25 483.907 1235.89 487.767C1234.63 484.76 1232.98 481.437 1231.6 478.65C1230.66 476.76 1229.85 475.134 1229.43 474.105C1227.83 470.352 1230.3 462.457 1230.3 462.378C1230.34 462.259 1230.33 462.131 1230.27 462.021C1230.21 461.911 1230.11 461.828 1230 461.789C1229.88 461.753 1229.75 461.765 1229.64 461.823C1229.53 461.88 1229.45 461.979 1229.41 462.097C1229.3 462.44 1226.85 470.396 1228.58 474.475C1229.03 475.521 1229.85 477.165 1230.79 479.064C1233.31 484.153 1237.12 491.846 1237.05 494.835C1236.97 498.984 1236.47 504.935 1236.46 504.997C1236.46 505.121 1236.49 505.245 1236.58 505.34C1236.66 505.436 1236.77 505.496 1236.9 505.507C1237.01 505.507 1237.13 505.463 1237.22 505.384C1237.3 505.304 1237.36 505.194 1237.37 505.076C1237.37 505.014 1237.87 499.028 1237.96 494.852C1237.78 492.851 1237.26 490.895 1236.42 489.068C1237.04 487.371 1242.42 472.303 1242.7 462.906C1243.03 452.875 1240.04 449.974 1239.92 449.851Z" fill="#6AC1FF"/>
<path d="M396.355 462.106C388.964 461.877 380.94 459.284 381.116 447.407C381.292 435.531 389.905 433.685 390.783 424.797C391.662 415.909 391.662 407.637 396.346 407.549C401.031 407.461 398.051 411.259 400.213 415.382C402.375 419.505 406.559 424.771 405.75 432.471C404.941 440.172 410.417 443.117 410.144 449.412C409.872 455.706 405.917 462.405 396.355 462.106Z" fill="#DAEEFF"/>
<path d="M399.088 431.777C399.027 431.719 398.944 431.687 398.859 431.69C398.774 431.692 398.694 431.728 398.636 431.79C398.577 431.852 398.546 431.934 398.549 432.019C398.551 432.104 398.587 432.185 398.649 432.243C398.649 432.243 400.574 434.186 400.407 440.753C400.24 446.432 397.295 455.223 396.364 457.869C395.485 455.803 394.36 453.473 393.411 451.601C392.769 450.3 392.207 449.183 391.908 448.471C390.81 445.895 392.479 440.462 392.497 440.41C392.511 440.369 392.516 440.327 392.512 440.284C392.509 440.242 392.497 440.2 392.478 440.163C392.458 440.125 392.431 440.091 392.398 440.064C392.365 440.037 392.327 440.017 392.286 440.005C392.204 439.98 392.116 439.989 392.041 440.028C391.965 440.068 391.908 440.135 391.882 440.216C391.811 440.454 390.124 445.93 391.319 448.726C391.627 449.456 392.198 450.581 392.831 451.891C394.589 455.407 397.181 460.682 397.137 462.73C397.085 465.587 396.742 469.684 396.733 469.763C396.728 469.848 396.757 469.931 396.813 469.995C396.868 470.059 396.947 470.099 397.032 470.106C397.112 470.106 397.19 470.077 397.25 470.023C397.31 469.969 397.348 469.896 397.357 469.815C397.357 469.815 397.7 465.657 397.761 462.783C397.639 461.404 397.279 460.057 396.698 458.8C397.128 457.631 400.828 447.275 401.022 440.805C401.25 433.852 399.176 431.856 399.088 431.777Z" fill="#6AC1FF"/>
<path d="M1120.66 581.531C1107.74 581.144 1093.72 576.608 1094.03 555.844C1094.34 535.079 1109.4 531.844 1110.94 516.284C1112.48 500.724 1112.55 486.298 1120.66 486.14C1128.77 485.982 1123.64 492.628 1127.42 499.828C1131.2 507.028 1138.52 516.249 1137.08 529.717C1135.65 543.185 1145.24 548.328 1144.74 559.334C1144.24 570.34 1137.38 582.041 1120.66 581.531Z" fill="#DAEEFF"/>
<path d="M1125.41 528.521C1125.36 528.469 1125.3 528.427 1125.23 528.398C1125.17 528.37 1125.09 528.355 1125.02 528.355C1124.95 528.355 1124.87 528.37 1124.8 528.398C1124.74 528.427 1124.68 528.469 1124.62 528.521C1124.52 528.627 1124.46 528.769 1124.46 528.917C1124.46 529.065 1124.52 529.207 1124.62 529.313C1124.62 529.313 1127.99 532.697 1127.65 544.187C1127.36 554.112 1122.22 569.47 1120.62 574.076C1119.09 570.454 1117.1 566.472 1115.46 563.114C1114.33 560.846 1113.37 558.885 1112.82 557.646C1110.9 553.136 1113.82 543.651 1113.85 543.58C1113.89 543.438 1113.88 543.284 1113.81 543.151C1113.74 543.018 1113.63 542.918 1113.48 542.873C1113.41 542.85 1113.34 542.842 1113.27 542.848C1113.19 542.854 1113.12 542.875 1113.06 542.909C1112.92 542.977 1112.82 543.095 1112.78 543.238C1112.65 543.651 1109.7 553.215 1111.78 558.112C1112.32 559.378 1113.3 561.356 1114.42 563.641C1117.44 569.795 1122.02 579.008 1121.95 582.603C1121.86 587.588 1121.25 594.753 1121.25 594.823C1121.24 594.971 1121.28 595.118 1121.38 595.231C1121.47 595.345 1121.61 595.416 1121.76 595.429H1121.81C1121.95 595.43 1122.09 595.377 1122.19 595.281C1122.3 595.184 1122.36 595.052 1122.37 594.911C1122.37 594.84 1122.98 587.649 1123.09 582.603C1123.09 580.995 1122.36 578.489 1121.23 575.65C1121.97 573.601 1128.46 555.492 1128.79 544.196C1129.18 532.152 1125.6 528.662 1125.41 528.521Z" fill="#6AC1FF"/>
<path d="M417.623 598.55C410.284 600.458 382.469 599.341 387.786 585.619C393.692 570.358 409.458 583.694 416.216 592.15C414.207 580.731 413.245 569.152 413.343 557.558C408.342 551.545 397.778 513.375 418.616 515.265C445.86 517.744 421.727 553.875 415.452 557.98C415.452 566.771 416.041 584.23 420.022 599.368C420.901 589.75 430.462 562.384 443.206 572.037C461.661 586.032 426.323 602.928 420.953 602.638C422.423 607.848 424.688 612.8 427.668 617.319C429.715 620.246 431.992 623.64 434.338 627.332L434.461 627.473C435.648 617.345 445.095 591.333 457.575 600.774C474.835 613.847 445.148 629.433 436.764 631.209C442.244 640.036 447.152 649.206 451.458 658.663C452.038 649.52 469.984 630.822 477.111 641.512C481.084 647.472 460.053 666.9 453.119 662.548C457.074 672.218 459.455 681.238 458.629 687.831C458.33 690.258 457.882 693.106 457.372 696.235C462.285 690.794 480.029 672.57 485.32 686.68C489.714 698.372 475.055 705.141 468.903 705.141C464.078 705.141 458.972 700.587 456.977 698.591C456.684 700.279 456.391 702.005 456.098 703.769C453.62 718.16 450.649 735.478 451.519 745.896C455.711 737.764 474.44 703.892 485.328 725.676C490.909 736.841 475.064 746.203 468.912 748.251C463.858 749.939 454.85 748.427 451.739 747.821C451.876 748.903 452.109 749.971 452.433 751.012C456.45 763.047 464.553 775.275 464.632 775.398C464.783 775.624 464.838 775.901 464.785 776.168C464.732 776.435 464.576 776.67 464.35 776.822C464.181 776.934 463.983 776.995 463.779 776.998C463.606 777.002 463.435 776.962 463.281 776.882C463.128 776.802 462.997 776.685 462.9 776.541C458.9 770.331 455.42 763.8 452.495 757.016C447.661 756.401 429.074 753.869 423.731 750.309C417.579 746.203 406.549 732.727 415.522 727.725C429.408 720.006 443.961 740.515 450.333 751.179C447.96 743.267 450.069 727.303 452.53 712.349C447.565 713.835 431.438 710.951 425.787 707.198C419.635 703.092 409.019 692.455 415.522 686.671C431.842 672.157 449.076 702.89 452.882 710.266C453.268 707.936 453.664 705.642 454.05 703.418C455.079 697.457 456.045 691.831 456.573 687.594C457.337 681.44 455.061 672.649 451.001 662.803C447.758 663.832 436.799 666.856 424.759 665.142C410.39 663.085 403.104 651.894 408.342 646.681C417.245 637.775 443.566 656.228 450.359 661.265C445.702 650.693 440.25 640.489 434.048 630.743C425.673 632.686 392.321 631.973 396.838 618.725C401.355 605.478 418.422 614.392 428.476 622.154C427.65 620.932 426.815 619.719 425.989 618.532C422.157 613.073 419.495 606.023 417.623 598.55Z" fill="url(#paint1_linear_2_8886)"/>
<path d="M477.078 725.685C494.303 718.784 498.513 745.166 499.427 753.816C503.214 741.201 504.831 725.861 503.109 713.378C500.472 713.316 490.331 712.833 483.23 709.281C475.021 705.176 469.959 688.737 477.078 686.706C489.03 683.287 499.55 704.016 502.757 711.084C502.476 709.492 502.142 707.945 501.738 706.477C498.886 695.284 497.1 683.845 496.403 672.315C493.16 672.263 484.1 671.946 479.125 670.285C472.973 668.228 462.55 652.14 470.917 649.749C482.456 646.452 492.668 663.006 496.236 669.661C495.551 656.966 496.069 644.756 498.231 636.431C497.309 632.774 495.542 625.002 495.542 618.963C495.542 610.743 505.069 594.586 513.998 602.533C530.335 617.064 505.851 634.039 499.98 637.767C497.994 645.969 497.563 657.801 498.223 670.074C501.896 660.843 516.678 627.605 534.475 643.595C541.303 649.749 526.266 664.122 516.019 668.21C510.387 670.482 504.437 671.867 498.381 672.315C499.084 683.655 500.849 694.904 503.654 705.914C504.137 707.7 504.522 709.511 504.805 711.338C508.698 703.479 526.776 670.091 546.787 684.631C555.092 690.671 538.579 705.158 530.37 709.246C523.34 712.763 508.98 712.956 505.06 712.938C506.765 725.386 505.218 740.63 501.545 753.377C507.573 744.252 525.203 720.85 538.596 735.909C546.506 744.858 525.968 752.436 520.141 754.37C514.991 756.128 503.988 756.594 500.508 756.717C497.59 765.508 493.617 772.849 488.986 776.708C488.804 776.868 488.569 776.955 488.327 776.954C488.176 776.953 488.028 776.919 487.891 776.855C487.755 776.792 487.634 776.699 487.536 776.585C487.363 776.374 487.28 776.104 487.305 775.833C487.329 775.561 487.46 775.31 487.668 775.134C492.062 771.451 495.876 764.471 498.671 756.032C496.034 754.915 488.23 751.566 483.194 748.208C477.078 744.155 467.551 729.492 477.078 725.685Z" fill="#F2BE3C"/>
<path d="M432.95 777.007H526.327C526.6 777.007 526.861 776.898 527.054 776.706C527.247 776.513 527.355 776.251 527.355 775.978C527.355 775.705 527.247 775.444 527.054 775.251C526.861 775.058 526.6 774.95 526.327 774.95H432.95C432.677 774.95 432.416 775.058 432.223 775.251C432.03 775.444 431.922 775.705 431.922 775.978C431.922 776.251 432.03 776.513 432.223 776.706C432.416 776.898 432.677 777.007 432.95 777.007Z" fill="#14336A"/>
<path d="M400.116 777.007H421.665C421.938 777.007 422.2 776.898 422.392 776.706C422.585 776.513 422.694 776.251 422.694 775.978C422.694 775.705 422.585 775.444 422.392 775.251C422.2 775.058 421.938 774.95 421.665 774.95H400.116C399.843 774.95 399.582 775.058 399.389 775.251C399.196 775.444 399.088 775.705 399.088 775.978C399.088 776.251 399.196 776.513 399.389 776.706C399.582 776.898 399.843 777.007 400.116 777.007Z" fill="#14336A"/>
<path d="M956.317 768.981H972.769V611.033H980.792V673.449H993.237V611.033H1001.25V681.44H980.792V768.981H997.244C998.276 769.029 999.249 769.473 999.962 770.22C1000.67 770.967 1001.07 771.961 1001.07 772.994C1001.07 774.027 1000.67 775.02 999.962 775.767C999.249 776.515 998.276 776.959 997.244 777.007H956.317C955.285 776.959 954.312 776.515 953.599 775.767C952.886 775.02 952.488 774.027 952.488 772.994C952.488 771.961 952.886 770.967 953.599 770.22C954.312 769.473 955.285 769.029 956.317 768.981Z" fill="#45A184"/>
<path d="M986.005 576.775C1020.96 576.775 1049.28 583.36 1049.28 591.491V599.403C1049.28 607.526 1020.95 614.119 986.005 614.119C951.062 614.119 922.729 607.526 922.729 599.403V591.491C922.729 583.36 951.062 576.775 986.005 576.775Z" fill="url(#paint2_linear_2_8886)"/>
<path opacity="0.1" d="M903.517 383.941C915.468 364.248 909.197 338.593 889.51 326.638C869.823 314.683 844.175 320.956 832.224 340.649C820.272 360.342 826.544 385.998 846.231 397.953C865.918 409.907 891.566 403.634 903.517 383.941Z" fill="white"/>
<path opacity="0.17" d="M894.094 349.511C893.34 349.514 892.605 349.275 891.998 348.829C891.39 348.383 890.942 347.753 890.72 347.032C889.247 342.321 885.965 338.388 881.595 336.096C877.224 333.805 872.123 333.343 867.413 334.813C866.518 335.091 865.549 335.003 864.719 334.567C863.889 334.131 863.266 333.383 862.988 332.487C862.709 331.592 862.798 330.623 863.234 329.793C863.67 328.963 864.417 328.34 865.312 328.061C871.812 326.033 878.85 326.671 884.88 329.832C890.91 332.994 895.438 338.422 897.469 344.922C897.744 345.813 897.653 346.776 897.218 347.6C896.783 348.424 896.039 349.042 895.149 349.318C894.809 349.434 894.453 349.499 894.094 349.511Z" fill="#50C6A1"/>
<path d="M852.974 314.629C843.551 317.574 835.212 323.248 829.013 330.933C822.814 338.618 819.032 347.97 818.145 357.805C817.259 367.64 819.307 377.518 824.033 386.188C828.758 394.859 835.947 401.933 844.691 406.517C853.436 411.1 863.343 412.987 873.159 411.939C882.976 410.891 892.261 406.955 899.841 400.629C907.422 394.302 912.956 385.87 915.746 376.397C918.535 366.924 918.454 356.837 915.512 347.41C911.564 334.768 902.758 324.212 891.03 318.064C879.302 311.916 865.613 310.681 852.974 314.629ZM880.288 402.116C872.414 404.573 863.989 404.639 856.078 402.306C848.166 399.973 841.125 395.345 835.843 389.009C830.561 382.672 827.276 374.911 826.403 366.707C825.531 358.503 827.111 350.224 830.942 342.918C834.773 335.612 840.685 329.607 847.929 325.661C855.172 321.716 863.423 320.008 871.637 320.753C879.851 321.498 887.66 324.663 894.076 329.848C900.492 335.032 905.227 342.004 907.681 349.88C910.974 360.439 909.939 371.872 904.806 381.668C899.672 391.463 890.859 398.819 880.306 402.116H880.288Z" fill="#D0DAED"/>
<path d="M886.427 407.081L878.131 409.674L889.932 447.458L898.228 444.865L886.427 407.081Z" fill="#D0DAED"/>
<path d="M915.257 514.016C913.998 514.41 912.674 514.552 911.36 514.434C910.046 514.315 908.768 513.939 907.6 513.327C906.431 512.715 905.394 511.878 904.549 510.865C903.704 509.852 903.066 508.683 902.672 507.423L884.533 449.341C884.325 448.672 884.251 447.969 884.315 447.271C884.38 446.574 884.581 445.896 884.907 445.276C885.234 444.656 885.679 444.107 886.218 443.659C886.757 443.212 887.379 442.876 888.049 442.669L897.048 439.856C897.717 439.648 898.421 439.574 899.119 439.638C899.817 439.702 900.496 439.903 901.116 440.229C901.736 440.556 902.286 441.002 902.734 441.541C903.182 442.08 903.52 442.703 903.727 443.372L921.866 501.463C922.65 504.004 922.394 506.753 921.155 509.106C919.916 511.459 917.796 513.225 915.257 514.016Z" fill="url(#paint3_linear_2_8886)"/>
<path d="M918.755 488.505C918.755 488.505 900.071 476.98 894.429 471.02C888.786 465.06 886.414 462.343 887.864 461.086C889.314 459.829 905.089 466.765 906.609 465.596C908.13 464.427 906.803 461.508 908.516 460.198C910.23 458.888 920.407 469.376 922.824 468.576C925.241 467.776 921.567 486.65 918.755 488.505Z" fill="#FFAA9D"/>
<path d="M844.23 703.154L830.529 716.42L795.814 684.28L807.239 665.696L844.23 703.154Z" fill="#FFAA9D"/>
<path d="M832.54 714.468C832.54 714.468 822.978 726.441 821.177 726.468C819.375 726.494 779.3 683.111 779.564 681.713C779.827 680.315 797.325 681.818 797.325 681.818L832.54 714.468Z" fill="url(#paint4_linear_2_8886)"/>
<path d="M805.104 663.718C805.104 663.718 845.24 705.721 846.822 705.721C848.404 705.721 1039.9 558.622 1039.9 558.622L958.716 522.579C958.716 522.579 855.61 550.947 805.104 663.718Z" fill="url(#paint5_linear_2_8886)"/>
<path d="M986.927 676.333L993.712 694.152L950.517 713.422L937.932 695.603L986.927 676.333Z" fill="#FFAA9D"/>
<path d="M952.362 522.596C952.362 522.596 884.569 536.75 878.698 559.703C872.827 582.656 878.171 607.763 896.846 637.125C915.521 666.487 934.531 698.433 938.442 699.462C938.442 699.462 988.641 679.357 989.775 676.843C990.908 674.328 961.652 605.223 961.652 605.223C961.652 605.223 1021.25 601.302 1035.16 566.138L952.362 522.596Z" fill="url(#paint6_linear_2_8886)"/>
<path d="M947.617 522.394C947.002 526.385 1021.04 572.775 1034.15 570.542C1047.25 568.309 1064.2 514.192 1059.52 473.789C1054.84 433.386 1018.65 403.074 1002.16 404.49C985.662 405.905 976.83 421.377 974.58 445.983C971.293 482.07 948.311 517.937 947.617 522.394Z" fill="url(#paint7_linear_2_8886)"/>
<path d="M1009.55 410.705C1018.28 409.949 1048.31 427.557 1055.33 479.538C1062.35 531.519 1033.66 535.871 1009.55 532.513C985.434 529.154 924.767 499.371 915.873 488.734C915.873 488.734 913.958 471.987 920.408 466.062C920.408 466.062 978.93 472.013 994.134 476.611C1009.34 481.208 976.461 413.58 1009.55 410.705Z" fill="url(#paint8_linear_2_8886)"/>
<path d="M992.711 691.541C992.711 691.541 999.961 705.044 999.267 706.706C998.572 708.367 942.933 728.147 941.755 727.356C940.578 726.564 948.848 711.066 948.848 711.066L992.711 691.541Z" fill="url(#paint9_linear_2_8886)"/>
<path d="M960.527 376.948L960.246 395.523L963.023 395.435C963.023 395.435 965.247 410.802 976.091 408.375C979.211 407.681 983.193 405.044 984.335 405.571C985.697 406.195 986.286 410.406 986.594 411.619C987.771 416.27 1004.06 411.567 1001.42 406.802C998.915 402.274 995.171 396.094 995.962 394.371C998.722 388.385 999.477 373.519 984.537 368.544C972.62 364.588 960.659 370.583 960.527 376.948Z" fill="#FFAA9D"/>
<path d="M1001.42 406.802C998.914 402.274 995.17 396.094 995.961 394.371C995.961 394.371 989.677 404.041 983.877 405.501C984.04 405.48 984.206 405.498 984.36 405.554C985.723 406.178 986.311 410.389 986.619 411.602C987.77 416.27 1004.06 411.567 1001.42 406.802Z" fill="#FF9F91"/>
<path d="M985.679 386.055C992.71 384.86 988.316 400.446 996.032 399.927C1003.75 399.409 1009.11 382.556 1003.46 369.563C997.807 356.57 987.042 357.3 976.794 359.067C966.547 360.834 953.944 365.475 953.988 373.229C953.988 391.892 976.082 376.236 977.541 381.844C978.666 386.187 980.398 398.732 975.907 399.022C971.416 399.312 966.828 395.602 963.278 396.552C961.23 397.105 955.606 421.571 970.309 422.388C984.862 423.197 988.544 410.353 985.477 399.857C982.516 389.879 982.226 386.635 985.679 386.055Z" fill="#14336A"/>
</g>
<defs>
<linearGradient id="paint0_linear_2_8886" x1="642" y1="111.997" x2="642" y2="438.731" gradientUnits="userSpaceOnUse">
<stop stop-color="#E9F3FC"/>
<stop offset="1" stop-color="white"/>
</linearGradient>
<linearGradient id="paint1_linear_2_8886" x1="433.152" y1="623.886" x2="456.568" y2="753.084" gradientUnits="userSpaceOnUse">
<stop stop-color="#3162DF"/>
<stop offset="0.96" stop-color="#173DB8"/>
</linearGradient>
<linearGradient id="paint2_linear_2_8886" x1="984.713" y1="581.215" x2="988.661" y2="624.642" gradientUnits="userSpaceOnUse">
<stop stop-color="#58CFAA"/>
<stop offset="0.97" stop-color="#45A184"/>
</linearGradient>
<linearGradient id="paint3_linear_2_8886" x1="891.059" y1="436.542" x2="909.54" y2="495.678" gradientUnits="userSpaceOnUse">
<stop stop-color="#58CFAA"/>
<stop offset="0.97" stop-color="#45A184"/>
</linearGradient>
<linearGradient id="paint4_linear_2_8886" x1="808.702" y1="699.584" x2="800.054" y2="710.289" gradientUnits="userSpaceOnUse">
<stop stop-color="#14336D"/>
<stop offset="0.97" stop-color="#0E2253"/>
</linearGradient>
<linearGradient id="paint5_linear_2_8886" x1="847.288" y1="653.142" x2="907.432" y2="604.704" gradientUnits="userSpaceOnUse">
<stop stop-color="#14336D"/>
<stop offset="0.97" stop-color="#0E2253"/>
</linearGradient>
<linearGradient id="paint6_linear_2_8886" x1="933.459" y1="606.7" x2="1039" y2="644.964" gradientUnits="userSpaceOnUse">
<stop stop-color="#14336D"/>
<stop offset="0.97" stop-color="#0E2253"/>
</linearGradient>
<linearGradient id="paint7_linear_2_8886" x1="970.247" y1="429.781" x2="1023.35" y2="529.221" gradientUnits="userSpaceOnUse">
<stop stop-color="#3162DF"/>
<stop offset="0.96" stop-color="#173DB8"/>
</linearGradient>
<linearGradient id="paint8_linear_2_8886" x1="985.987" y1="477.877" x2="1046.36" y2="605.112" gradientUnits="userSpaceOnUse">
<stop stop-color="#3162DF"/>
<stop offset="0.96" stop-color="#173DB8"/>
</linearGradient>
<linearGradient id="paint9_linear_2_8886" x1="964.35" y1="704.068" x2="970.839" y2="716.216" gradientUnits="userSpaceOnUse">
<stop stop-color="#14336D"/>
<stop offset="0.97" stop-color="#0E2253"/>
</linearGradient>
<clipPath id="clip0_2_8886">
<rect width="1283" height="786" fill="white" transform="translate(0.5)"/>
</clipPath>
</defs>
</svg>
