<svg width="1290" height="181" viewBox="0 0 1290 181" fill="none" xmlns="http://www.w3.org/2000/svg">
<rect width="300" height="181" rx="20" fill="#F5F5F5"/>
<path d="M112.068 80V76.8L120.26 68.768C120.985 68.064 121.572 67.4133 122.02 66.816C122.468 66.2187 122.799 65.632 123.012 65.056C123.225 64.4587 123.332 63.808 123.332 63.104C123.332 62.464 123.204 61.9093 122.948 61.44C122.713 60.9493 122.297 60.576 121.7 60.32C121.124 60.064 120.313 59.936 119.268 59.936H112.708V56.832C113.711 56.6613 114.82 56.512 116.036 56.384C117.273 56.256 118.617 56.192 120.068 56.192C121.903 56.192 123.343 56.448 124.388 56.96C125.433 57.4507 126.18 58.176 126.628 59.136C127.076 60.0747 127.3 61.1947 127.3 62.496C127.3 63.5627 127.151 64.544 126.852 65.44C126.575 66.336 126.137 67.2 125.54 68.032C124.964 68.8427 124.228 69.6853 123.332 70.56L117.348 76.416H128.068V80H112.068ZM139.648 80.16C138.304 80.16 136.917 80.1173 135.488 80.032C134.058 79.9467 132.736 79.84 131.52 79.712V76.608H139.808C140.64 76.608 141.322 76.4693 141.856 76.192C142.389 75.9147 142.784 75.5413 143.04 75.072C143.296 74.5813 143.424 74.0587 143.424 73.504V71.52C143.424 70.6453 143.189 69.9627 142.72 69.472C142.25 68.96 141.493 68.704 140.448 68.704H138.368C137.578 68.704 136.96 68.8747 136.512 69.216C136.085 69.5573 135.808 70.08 135.68 70.784H131.936L132.608 56.384H146.528V59.936H136.032L135.712 66.624C136.01 66.24 136.458 65.9307 137.056 65.696C137.653 65.4613 138.357 65.344 139.168 65.344H141.824C143.061 65.344 144.085 65.5893 144.896 66.08C145.728 66.5493 146.346 67.2 146.752 68.032C147.178 68.8427 147.392 69.7707 147.392 70.816V74.304C147.392 75.648 147.082 76.7573 146.464 77.632C145.866 78.4853 144.992 79.1253 143.84 79.552C142.688 79.9573 141.29 80.16 139.648 80.16ZM151.271 80V56.384H155.207V66.464H158.695L164.135 56.384H168.359L161.863 68.224L168.519 80H164.295L158.695 70.048H155.207V80H151.271ZM177.378 75.776V61.44H180.578V75.776H177.378ZM171.81 70.208V67.008H186.146V70.208H171.81Z" fill="#FF782D"/>
<path d="M91.916 120.76L92.312 118.96H98.162L98.576 120.76H91.916ZM95.21 114.964L93.23 119.59L93.194 120.058L91.448 124H89.054L95.21 110.698L101.366 124H98.972L97.262 120.166L97.208 119.644L95.21 114.964ZM103.966 119.86C103.966 120.388 104.08 120.85 104.308 121.246C104.536 121.63 104.842 121.936 105.226 122.164C105.622 122.392 106.06 122.506 106.54 122.506C106.936 122.506 107.314 122.446 107.674 122.326C108.034 122.206 108.352 122.038 108.628 121.822C108.904 121.606 109.108 121.366 109.24 121.102V123.244C108.952 123.532 108.562 123.76 108.07 123.928C107.578 124.096 107.038 124.18 106.45 124.18C105.598 124.18 104.83 124 104.146 123.64C103.474 123.268 102.94 122.758 102.544 122.11C102.16 121.45 101.968 120.7 101.968 119.86C101.968 119.008 102.16 118.258 102.544 117.61C102.94 116.962 103.474 116.458 104.146 116.098C104.83 115.726 105.598 115.54 106.45 115.54C107.038 115.54 107.578 115.624 108.07 115.792C108.562 115.96 108.952 116.188 109.24 116.476V118.618C109.108 118.342 108.898 118.102 108.61 117.898C108.334 117.682 108.016 117.514 107.656 117.394C107.296 117.274 106.924 117.214 106.54 117.214C106.06 117.214 105.622 117.328 105.226 117.556C104.842 117.784 104.536 118.096 104.308 118.492C104.08 118.888 103.966 119.344 103.966 119.86ZM110.236 115.72H114.934V117.43H110.236V115.72ZM111.622 112.84H113.548V124H111.622V112.84ZM116.203 112.426C116.203 112.09 116.323 111.808 116.563 111.58C116.815 111.352 117.103 111.238 117.427 111.238C117.775 111.238 118.063 111.352 118.291 111.58C118.531 111.808 118.651 112.09 118.651 112.426C118.651 112.75 118.531 113.032 118.291 113.272C118.063 113.5 117.775 113.614 117.427 113.614C117.103 113.614 116.815 113.5 116.563 113.272C116.323 113.032 116.203 112.75 116.203 112.426ZM116.473 115.72H118.381V124H116.473V115.72ZM119.796 115.72H121.92L124.08 121.066L126.24 115.72H128.382L124.08 124.756L119.796 115.72ZM132.936 124.18C132.096 124.18 131.352 124 130.704 123.64C130.068 123.28 129.576 122.776 129.228 122.128C128.88 121.48 128.706 120.724 128.706 119.86C128.706 118.984 128.88 118.222 129.228 117.574C129.588 116.926 130.092 116.428 130.74 116.08C131.388 115.72 132.15 115.54 133.026 115.54C133.902 115.54 134.646 115.708 135.258 116.044C135.87 116.38 136.338 116.866 136.662 117.502C136.998 118.126 137.166 118.882 137.166 119.77C137.166 119.866 137.16 119.968 137.148 120.076C137.148 120.184 137.142 120.262 137.13 120.31H129.858V118.978H135.474L134.88 119.806C134.916 119.734 134.952 119.638 134.988 119.518C135.036 119.386 135.06 119.278 135.06 119.194C135.06 118.75 134.97 118.366 134.79 118.042C134.622 117.718 134.382 117.466 134.07 117.286C133.77 117.106 133.416 117.016 133.008 117.016C132.516 117.016 132.096 117.124 131.748 117.34C131.4 117.556 131.136 117.868 130.956 118.276C130.776 118.684 130.68 119.188 130.668 119.788C130.668 120.388 130.758 120.898 130.938 121.318C131.118 121.726 131.382 122.038 131.73 122.254C132.09 122.47 132.522 122.578 133.026 122.578C133.554 122.578 134.016 122.47 134.412 122.254C134.808 122.038 135.138 121.708 135.402 121.264L137.076 121.948C136.644 122.692 136.086 123.25 135.402 123.622C134.718 123.994 133.896 124.18 132.936 124.18ZM145.408 119.95C145.684 120.43 145.978 120.856 146.29 121.228C146.614 121.588 146.968 121.87 147.352 122.074C147.736 122.266 148.168 122.362 148.648 122.362C149.224 122.362 149.692 122.206 150.052 121.894C150.412 121.582 150.592 121.18 150.592 120.688C150.592 120.22 150.478 119.848 150.25 119.572C150.022 119.284 149.704 119.044 149.296 118.852C148.9 118.648 148.438 118.45 147.91 118.258C147.598 118.15 147.25 118.006 146.866 117.826C146.482 117.634 146.116 117.4 145.768 117.124C145.42 116.836 145.132 116.488 144.904 116.08C144.676 115.66 144.562 115.156 144.562 114.568C144.562 113.896 144.736 113.308 145.084 112.804C145.432 112.288 145.9 111.892 146.488 111.616C147.088 111.328 147.766 111.184 148.522 111.184C149.266 111.184 149.914 111.316 150.466 111.58C151.018 111.844 151.48 112.18 151.852 112.588C152.236 112.996 152.536 113.422 152.752 113.866L151.024 114.838C150.868 114.526 150.67 114.238 150.43 113.974C150.19 113.698 149.908 113.482 149.584 113.326C149.272 113.158 148.906 113.074 148.486 113.074C147.898 113.074 147.466 113.212 147.19 113.488C146.914 113.752 146.776 114.064 146.776 114.424C146.776 114.748 146.872 115.042 147.064 115.306C147.268 115.558 147.58 115.798 148 116.026C148.42 116.254 148.966 116.488 149.638 116.728C150.01 116.86 150.382 117.028 150.754 117.232C151.138 117.436 151.486 117.694 151.798 118.006C152.11 118.306 152.356 118.66 152.536 119.068C152.728 119.476 152.824 119.956 152.824 120.508C152.824 121.096 152.71 121.624 152.482 122.092C152.254 122.56 151.942 122.956 151.546 123.28C151.15 123.592 150.7 123.832 150.196 124C149.704 124.18 149.188 124.27 148.648 124.27C147.904 124.27 147.214 124.126 146.578 123.838C145.954 123.538 145.408 123.142 144.94 122.65C144.472 122.158 144.1 121.624 143.824 121.048L145.408 119.95ZM153.69 115.72H158.388V117.43H153.69V115.72ZM155.076 112.84H157.002V124H155.076V112.84ZM161.726 120.76C161.726 121.348 161.852 121.804 162.104 122.128C162.356 122.452 162.74 122.614 163.256 122.614C163.628 122.614 163.952 122.542 164.228 122.398C164.504 122.242 164.72 122.026 164.876 121.75C165.032 121.462 165.11 121.132 165.11 120.76V115.72H167.054V124H165.11V122.722C164.846 123.202 164.504 123.568 164.084 123.82C163.676 124.06 163.184 124.18 162.608 124.18C161.684 124.18 160.97 123.892 160.466 123.316C159.974 122.74 159.728 121.96 159.728 120.976V115.72H161.726V120.76ZM175.765 109.96H177.727V124H175.765V109.96ZM168.907 119.86C168.907 118.948 169.093 118.174 169.465 117.538C169.837 116.89 170.329 116.398 170.941 116.062C171.565 115.714 172.231 115.54 172.939 115.54C173.635 115.54 174.241 115.714 174.757 116.062C175.285 116.41 175.699 116.908 175.999 117.556C176.311 118.192 176.467 118.96 176.467 119.86C176.467 120.748 176.311 121.516 175.999 122.164C175.699 122.812 175.285 123.31 174.757 123.658C174.241 124.006 173.635 124.18 172.939 124.18C172.231 124.18 171.565 124.012 170.941 123.676C170.329 123.328 169.837 122.83 169.465 122.182C169.093 121.534 168.907 120.76 168.907 119.86ZM170.923 119.86C170.923 120.412 171.037 120.886 171.265 121.282C171.493 121.678 171.793 121.978 172.165 122.182C172.549 122.386 172.963 122.488 173.407 122.488C173.779 122.488 174.145 122.386 174.505 122.182C174.877 121.978 175.177 121.684 175.405 121.3C175.645 120.904 175.765 120.424 175.765 119.86C175.765 119.296 175.645 118.822 175.405 118.438C175.177 118.042 174.877 117.742 174.505 117.538C174.145 117.334 173.779 117.232 173.407 117.232C172.963 117.232 172.549 117.334 172.165 117.538C171.793 117.742 171.493 118.042 171.265 118.438C171.037 118.834 170.923 119.308 170.923 119.86ZM183.737 124.18C182.897 124.18 182.153 124 181.505 123.64C180.869 123.28 180.377 122.776 180.029 122.128C179.681 121.48 179.507 120.724 179.507 119.86C179.507 118.984 179.681 118.222 180.029 117.574C180.389 116.926 180.893 116.428 181.541 116.08C182.189 115.72 182.951 115.54 183.827 115.54C184.703 115.54 185.447 115.708 186.059 116.044C186.671 116.38 187.139 116.866 187.463 117.502C187.799 118.126 187.967 118.882 187.967 119.77C187.967 119.866 187.961 119.968 187.949 120.076C187.949 120.184 187.943 120.262 187.931 120.31H180.659V118.978H186.275L185.681 119.806C185.717 119.734 185.753 119.638 185.789 119.518C185.837 119.386 185.861 119.278 185.861 119.194C185.861 118.75 185.771 118.366 185.591 118.042C185.423 117.718 185.183 117.466 184.871 117.286C184.571 117.106 184.217 117.016 183.809 117.016C183.317 117.016 182.897 117.124 182.549 117.34C182.201 117.556 181.937 117.868 181.757 118.276C181.577 118.684 181.481 119.188 181.469 119.788C181.469 120.388 181.559 120.898 181.739 121.318C181.919 121.726 182.183 122.038 182.531 122.254C182.891 122.47 183.323 122.578 183.827 122.578C184.355 122.578 184.817 122.47 185.213 122.254C185.609 122.038 185.939 121.708 186.203 121.264L187.877 121.948C187.445 122.692 186.887 123.25 186.203 123.622C185.519 123.994 184.697 124.18 183.737 124.18ZM195.15 118.96C195.15 118.348 195.024 117.886 194.772 117.574C194.52 117.262 194.13 117.106 193.602 117.106C193.242 117.106 192.924 117.184 192.648 117.34C192.372 117.484 192.156 117.7 192 117.988C191.844 118.264 191.766 118.588 191.766 118.96V124H189.822V115.72H191.766V116.998C192.03 116.506 192.366 116.14 192.774 115.9C193.194 115.66 193.692 115.54 194.268 115.54C195.204 115.54 195.918 115.828 196.41 116.404C196.902 116.968 197.148 117.748 197.148 118.744V124H195.15V118.96ZM198.479 115.72H203.177V117.43H198.479V115.72ZM199.865 112.84H201.791V124H199.865V112.84ZM204.895 121.282C205.159 121.57 205.423 121.822 205.687 122.038C205.963 122.242 206.239 122.398 206.515 122.506C206.791 122.602 207.067 122.65 207.343 122.65C207.691 122.65 207.961 122.572 208.153 122.416C208.357 122.26 208.459 122.044 208.459 121.768C208.459 121.528 208.381 121.324 208.225 121.156C208.069 120.976 207.853 120.826 207.577 120.706C207.301 120.574 206.977 120.442 206.605 120.31C206.233 120.166 205.861 119.998 205.489 119.806C205.129 119.602 204.829 119.338 204.589 119.014C204.361 118.69 204.247 118.282 204.247 117.79C204.247 117.286 204.373 116.866 204.625 116.53C204.889 116.194 205.237 115.948 205.669 115.792C206.113 115.624 206.587 115.54 207.091 115.54C207.547 115.54 207.973 115.606 208.369 115.738C208.777 115.87 209.143 116.044 209.467 116.26C209.791 116.476 210.067 116.722 210.295 116.998L209.215 118.15C208.939 117.826 208.609 117.562 208.225 117.358C207.841 117.154 207.445 117.052 207.037 117.052C206.761 117.052 206.533 117.112 206.353 117.232C206.173 117.352 206.083 117.526 206.083 117.754C206.083 117.946 206.161 118.12 206.317 118.276C206.485 118.42 206.701 118.552 206.965 118.672C207.241 118.792 207.547 118.918 207.883 119.05C208.339 119.23 208.759 119.428 209.143 119.644C209.527 119.86 209.833 120.124 210.061 120.436C210.301 120.748 210.421 121.156 210.421 121.66C210.421 122.44 210.151 123.07 209.611 123.55C209.083 124.018 208.363 124.252 207.451 124.252C206.887 124.252 206.365 124.168 205.885 124C205.417 123.82 205.003 123.592 204.643 123.316C204.295 123.028 204.001 122.728 203.761 122.416L204.895 121.282Z" fill="black"/>
<rect x="330" width="300" height="181" rx="20" fill="#F5F5F5"/>
<path d="M458.192 80.128C457.36 80.128 456.571 80.0533 455.824 79.904C455.099 79.7333 454.459 79.4667 453.904 79.104C453.349 78.72 452.912 78.208 452.592 77.568C452.272 76.928 452.112 76.1173 452.112 75.136V71.84C452.112 71.1573 452.24 70.56 452.496 70.048C452.752 69.5147 453.083 69.0667 453.488 68.704C453.915 68.3413 454.384 68.1067 454.896 68C454.235 67.68 453.733 67.3067 453.392 66.88C453.072 66.432 452.859 65.952 452.752 65.44C452.645 64.928 452.592 64.3947 452.592 63.84V61.12C452.592 59.9253 452.837 58.9653 453.328 58.24C453.819 57.5147 454.469 56.992 455.28 56.672C456.112 56.352 457.019 56.192 458 56.192H462.448C463.472 56.192 464.368 56.352 465.136 56.672C465.925 56.992 466.544 57.5147 466.992 58.24C467.461 58.9653 467.696 59.9253 467.696 61.12V63.84C467.696 64.1387 467.653 64.48 467.568 64.864C467.504 65.248 467.387 65.6427 467.216 66.048C467.045 66.432 466.811 66.7627 466.512 67.04C466.235 67.3173 465.893 67.5093 465.488 67.616C466.192 67.7653 466.736 68.0747 467.12 68.544C467.504 68.992 467.771 69.504 467.92 70.08C468.069 70.656 468.144 71.2 468.144 71.712V75.136C468.144 76.4373 467.899 77.4507 467.408 78.176C466.917 78.88 466.245 79.3813 465.392 79.68C464.539 79.9787 463.579 80.128 462.512 80.128H458.192ZM458.832 76.736H461.616C462.576 76.736 463.237 76.544 463.6 76.16C463.984 75.7547 464.176 75.1787 464.176 74.432V72.032C464.176 71.2213 463.973 70.624 463.568 70.24C463.163 69.8347 462.491 69.632 461.552 69.632H458.832C458.533 69.632 458.224 69.6747 457.904 69.76C457.584 69.8453 457.285 69.9947 457.008 70.208C456.731 70.4 456.507 70.6453 456.336 70.944C456.165 71.2427 456.08 71.6053 456.08 72.032V74.432C456.08 75.2853 456.325 75.8827 456.816 76.224C457.328 76.5653 458 76.736 458.832 76.736ZM458.832 66.24H461.52C462.117 66.24 462.576 66.1333 462.896 65.92C463.237 65.6853 463.472 65.3867 463.6 65.024C463.749 64.64 463.824 64.2347 463.824 63.808V62.048C463.824 61.0453 463.621 60.384 463.216 60.064C462.832 59.7227 462.299 59.552 461.616 59.552H458.832C458 59.552 457.392 59.7333 457.008 60.096C456.645 60.4587 456.464 61.1093 456.464 62.048V63.808C456.464 64.64 456.645 65.2587 457.008 65.664C457.392 66.048 458 66.24 458.832 66.24ZM479.338 80.16C478.357 80.16 477.333 80.1173 476.266 80.032C475.199 79.9467 474.229 79.84 473.354 79.712V76.608H479.018C480.703 76.608 481.973 76.0427 482.826 74.912C483.679 73.76 484.106 72.0533 484.106 69.792C483.573 69.8987 482.986 69.9947 482.346 70.08C481.706 70.1653 481.045 70.2187 480.362 70.24C479.701 70.2613 479.029 70.272 478.346 70.272C476.831 70.272 475.605 70.08 474.666 69.696C473.727 69.2907 473.034 68.6933 472.586 67.904C472.159 67.1147 471.946 66.144 471.946 64.992V61.632C471.946 60.3307 472.191 59.2853 472.682 58.496C473.194 57.7067 473.877 57.1307 474.73 56.768C475.605 56.4053 476.586 56.224 477.674 56.224H481.194C482.282 56.224 483.253 56.4053 484.106 56.768C484.959 57.1093 485.674 57.7173 486.25 58.592C486.847 59.4453 487.295 60.64 487.594 62.176C487.914 63.6907 488.074 65.6213 488.074 67.968C488.074 70.208 487.871 72.1067 487.466 73.664C487.082 75.2213 486.506 76.48 485.738 77.44C484.991 78.4 484.074 79.0933 482.986 79.52C481.919 79.9467 480.703 80.16 479.338 80.16ZM479.402 66.88H484.106C484.106 65.472 484.031 64.3093 483.882 63.392C483.733 62.4533 483.498 61.728 483.178 61.216C482.879 60.6827 482.495 60.3093 482.026 60.096C481.578 59.8827 481.045 59.776 480.426 59.776H478.538C478.026 59.776 477.567 59.8613 477.162 60.032C476.778 60.1813 476.469 60.448 476.234 60.832C476.021 61.1947 475.914 61.7173 475.914 62.4V64.288C475.914 64.992 476.042 65.536 476.298 65.92C476.575 66.2827 476.97 66.5387 477.482 66.688C477.994 66.816 478.634 66.88 479.402 66.88ZM498.963 80.16C497.982 80.16 496.958 80.1173 495.891 80.032C494.824 79.9467 493.854 79.84 492.979 79.712V76.608H498.643C500.328 76.608 501.598 76.0427 502.451 74.912C503.304 73.76 503.731 72.0533 503.731 69.792C503.198 69.8987 502.611 69.9947 501.971 70.08C501.331 70.1653 500.67 70.2187 499.987 70.24C499.326 70.2613 498.654 70.272 497.971 70.272C496.456 70.272 495.23 70.08 494.291 69.696C493.352 69.2907 492.659 68.6933 492.211 67.904C491.784 67.1147 491.571 66.144 491.571 64.992V61.632C491.571 60.3307 491.816 59.2853 492.307 58.496C492.819 57.7067 493.502 57.1307 494.355 56.768C495.23 56.4053 496.211 56.224 497.299 56.224H500.819C501.907 56.224 502.878 56.4053 503.731 56.768C504.584 57.1093 505.299 57.7173 505.875 58.592C506.472 59.4453 506.92 60.64 507.219 62.176C507.539 63.6907 507.699 65.6213 507.699 67.968C507.699 70.208 507.496 72.1067 507.091 73.664C506.707 75.2213 506.131 76.48 505.363 77.44C504.616 78.4 503.699 79.0933 502.611 79.52C501.544 79.9467 500.328 80.16 498.963 80.16ZM499.027 66.88H503.731C503.731 65.472 503.656 64.3093 503.507 63.392C503.358 62.4533 503.123 61.728 502.803 61.216C502.504 60.6827 502.12 60.3093 501.651 60.096C501.203 59.8827 500.67 59.776 500.051 59.776H498.163C497.651 59.776 497.192 59.8613 496.787 60.032C496.403 60.1813 496.094 60.448 495.859 60.832C495.646 61.1947 495.539 61.7173 495.539 62.4V64.288C495.539 64.992 495.667 65.536 495.923 65.92C496.2 66.2827 496.595 66.5387 497.107 66.688C497.619 66.816 498.259 66.88 499.027 66.88Z" fill="#FF782D"/>
<path d="M427.144 113.362V111.4H435.928V113.362H432.598V124H430.456V113.362H427.144ZM434.889 119.86C434.889 119.008 435.081 118.258 435.465 117.61C435.861 116.962 436.395 116.458 437.067 116.098C437.739 115.726 438.501 115.54 439.353 115.54C440.205 115.54 440.961 115.726 441.621 116.098C442.293 116.458 442.827 116.962 443.223 117.61C443.619 118.258 443.817 119.008 443.817 119.86C443.817 120.7 443.619 121.45 443.223 122.11C442.827 122.758 442.293 123.268 441.621 123.64C440.961 124 440.205 124.18 439.353 124.18C438.501 124.18 437.739 124 437.067 123.64C436.395 123.268 435.861 122.758 435.465 122.11C435.081 121.45 434.889 120.7 434.889 119.86ZM436.887 119.86C436.887 120.376 436.995 120.832 437.211 121.228C437.427 121.612 437.721 121.918 438.093 122.146C438.465 122.362 438.885 122.47 439.353 122.47C439.809 122.47 440.223 122.362 440.595 122.146C440.979 121.918 441.279 121.612 441.495 121.228C441.711 120.832 441.819 120.376 441.819 119.86C441.819 119.344 441.711 118.888 441.495 118.492C441.279 118.096 440.979 117.79 440.595 117.574C440.223 117.358 439.809 117.25 439.353 117.25C438.885 117.25 438.465 117.358 438.093 117.574C437.721 117.79 437.427 118.096 437.211 118.492C436.995 118.888 436.887 119.344 436.887 119.86ZM444.51 115.72H449.208V117.43H444.51V115.72ZM445.896 112.84H447.822V124H445.896V112.84ZM451.773 121.426C451.773 121.702 451.839 121.942 451.971 122.146C452.103 122.338 452.283 122.482 452.511 122.578C452.751 122.674 453.021 122.722 453.321 122.722C453.705 122.722 454.053 122.644 454.365 122.488C454.689 122.332 454.947 122.104 455.139 121.804C455.343 121.492 455.445 121.132 455.445 120.724L455.733 121.804C455.733 122.332 455.577 122.776 455.265 123.136C454.965 123.484 454.581 123.748 454.113 123.928C453.657 124.096 453.189 124.18 452.709 124.18C452.193 124.18 451.713 124.078 451.269 123.874C450.825 123.67 450.471 123.37 450.207 122.974C449.943 122.578 449.811 122.098 449.811 121.534C449.811 120.73 450.093 120.094 450.657 119.626C451.221 119.146 452.019 118.906 453.051 118.906C453.603 118.906 454.077 118.966 454.473 119.086C454.881 119.206 455.217 119.35 455.481 119.518C455.745 119.674 455.931 119.818 456.039 119.95V120.94C455.667 120.676 455.271 120.484 454.851 120.364C454.431 120.244 453.987 120.184 453.519 120.184C453.111 120.184 452.781 120.238 452.529 120.346C452.277 120.442 452.085 120.58 451.953 120.76C451.833 120.94 451.773 121.162 451.773 121.426ZM451.161 117.88L450.369 116.512C450.741 116.284 451.221 116.062 451.809 115.846C452.409 115.63 453.093 115.522 453.861 115.522C454.545 115.522 455.145 115.624 455.661 115.828C456.189 116.032 456.603 116.326 456.903 116.71C457.203 117.082 457.353 117.544 457.353 118.096V124H455.445V118.474C455.445 118.21 455.397 117.994 455.301 117.826C455.217 117.658 455.097 117.52 454.941 117.412C454.785 117.304 454.599 117.226 454.383 117.178C454.167 117.13 453.933 117.106 453.681 117.106C453.297 117.106 452.931 117.154 452.583 117.25C452.247 117.334 451.953 117.442 451.701 117.574C451.461 117.694 451.281 117.796 451.161 117.88ZM459.619 109.96H461.563V124H459.619V109.96ZM471.173 117.7C471.173 118.588 471.371 119.368 471.767 120.04C472.175 120.712 472.703 121.234 473.351 121.606C474.011 121.966 474.725 122.146 475.493 122.146C476.093 122.146 476.633 122.068 477.113 121.912C477.593 121.756 478.025 121.546 478.409 121.282C478.805 121.006 479.147 120.7 479.435 120.364V122.884C478.907 123.316 478.337 123.646 477.725 123.874C477.113 124.102 476.345 124.216 475.421 124.216C474.497 124.216 473.633 124.06 472.829 123.748C472.037 123.436 471.347 122.986 470.759 122.398C470.171 121.81 469.709 121.12 469.373 120.328C469.049 119.524 468.887 118.648 468.887 117.7C468.887 116.752 469.049 115.882 469.373 115.09C469.709 114.286 470.171 113.59 470.759 113.002C471.347 112.414 472.037 111.964 472.829 111.652C473.633 111.34 474.497 111.184 475.421 111.184C476.345 111.184 477.113 111.298 477.725 111.526C478.337 111.754 478.907 112.084 479.435 112.516V115.036C479.147 114.7 478.805 114.4 478.409 114.136C478.025 113.86 477.593 113.644 477.113 113.488C476.633 113.332 476.093 113.254 475.493 113.254C474.725 113.254 474.011 113.44 473.351 113.812C472.703 114.172 472.175 114.688 471.767 115.36C471.371 116.02 471.173 116.8 471.173 117.7ZM481.26 119.86C481.26 119.008 481.452 118.258 481.836 117.61C482.232 116.962 482.766 116.458 483.438 116.098C484.11 115.726 484.872 115.54 485.724 115.54C486.576 115.54 487.332 115.726 487.992 116.098C488.664 116.458 489.198 116.962 489.594 117.61C489.99 118.258 490.188 119.008 490.188 119.86C490.188 120.7 489.99 121.45 489.594 122.11C489.198 122.758 488.664 123.268 487.992 123.64C487.332 124 486.576 124.18 485.724 124.18C484.872 124.18 484.11 124 483.438 123.64C482.766 123.268 482.232 122.758 481.836 122.11C481.452 121.45 481.26 120.7 481.26 119.86ZM483.258 119.86C483.258 120.376 483.366 120.832 483.582 121.228C483.798 121.612 484.092 121.918 484.464 122.146C484.836 122.362 485.256 122.47 485.724 122.47C486.18 122.47 486.594 122.362 486.966 122.146C487.35 121.918 487.65 121.612 487.866 121.228C488.082 120.832 488.19 120.376 488.19 119.86C488.19 119.344 488.082 118.888 487.866 118.492C487.65 118.096 487.35 117.79 486.966 117.574C486.594 117.358 486.18 117.25 485.724 117.25C485.256 117.25 484.836 117.358 484.464 117.574C484.092 117.79 483.798 118.096 483.582 118.492C483.366 118.888 483.258 119.344 483.258 119.86ZM494.031 120.76C494.031 121.348 494.157 121.804 494.409 122.128C494.661 122.452 495.045 122.614 495.561 122.614C495.933 122.614 496.257 122.542 496.533 122.398C496.809 122.242 497.025 122.026 497.181 121.75C497.337 121.462 497.415 121.132 497.415 120.76V115.72H499.359V124H497.415V122.722C497.151 123.202 496.809 123.568 496.389 123.82C495.981 124.06 495.489 124.18 494.913 124.18C493.989 124.18 493.275 123.892 492.771 123.316C492.279 122.74 492.033 121.96 492.033 120.976V115.72H494.031V120.76ZM503.768 115.72V124H501.842V115.72H503.768ZM506.234 117.79C506.054 117.646 505.886 117.538 505.73 117.466C505.574 117.394 505.376 117.358 505.136 117.358C504.812 117.358 504.548 117.442 504.344 117.61C504.14 117.778 503.99 118.012 503.894 118.312C503.81 118.6 503.768 118.942 503.768 119.338L503.12 118.96C503.12 118.3 503.24 117.718 503.48 117.214C503.732 116.698 504.05 116.29 504.434 115.99C504.83 115.69 505.238 115.54 505.658 115.54C505.958 115.54 506.24 115.588 506.504 115.684C506.768 115.768 506.99 115.924 507.17 116.152L506.234 117.79ZM508.882 121.282C509.146 121.57 509.41 121.822 509.674 122.038C509.95 122.242 510.226 122.398 510.502 122.506C510.778 122.602 511.054 122.65 511.33 122.65C511.678 122.65 511.948 122.572 512.14 122.416C512.344 122.26 512.446 122.044 512.446 121.768C512.446 121.528 512.368 121.324 512.212 121.156C512.056 120.976 511.84 120.826 511.564 120.706C511.288 120.574 510.964 120.442 510.592 120.31C510.22 120.166 509.848 119.998 509.476 119.806C509.116 119.602 508.816 119.338 508.576 119.014C508.348 118.69 508.234 118.282 508.234 117.79C508.234 117.286 508.36 116.866 508.612 116.53C508.876 116.194 509.224 115.948 509.656 115.792C510.1 115.624 510.574 115.54 511.078 115.54C511.534 115.54 511.96 115.606 512.356 115.738C512.764 115.87 513.13 116.044 513.454 116.26C513.778 116.476 514.054 116.722 514.282 116.998L513.202 118.15C512.926 117.826 512.596 117.562 512.212 117.358C511.828 117.154 511.432 117.052 511.024 117.052C510.748 117.052 510.52 117.112 510.34 117.232C510.16 117.352 510.07 117.526 510.07 117.754C510.07 117.946 510.148 118.12 510.304 118.276C510.472 118.42 510.688 118.552 510.952 118.672C511.228 118.792 511.534 118.918 511.87 119.05C512.326 119.23 512.746 119.428 513.13 119.644C513.514 119.86 513.82 120.124 514.048 120.436C514.288 120.748 514.408 121.156 514.408 121.66C514.408 122.44 514.138 123.07 513.598 123.55C513.07 124.018 512.35 124.252 511.438 124.252C510.874 124.252 510.352 124.168 509.872 124C509.404 123.82 508.99 123.592 508.63 123.316C508.282 123.028 507.988 122.728 507.748 122.416L508.882 121.282ZM519.733 124.18C518.893 124.18 518.149 124 517.501 123.64C516.865 123.28 516.373 122.776 516.025 122.128C515.677 121.48 515.503 120.724 515.503 119.86C515.503 118.984 515.677 118.222 516.025 117.574C516.385 116.926 516.889 116.428 517.537 116.08C518.185 115.72 518.947 115.54 519.823 115.54C520.699 115.54 521.443 115.708 522.055 116.044C522.667 116.38 523.135 116.866 523.459 117.502C523.795 118.126 523.963 118.882 523.963 119.77C523.963 119.866 523.957 119.968 523.945 120.076C523.945 120.184 523.939 120.262 523.927 120.31H516.655V118.978H522.271L521.677 119.806C521.713 119.734 521.749 119.638 521.785 119.518C521.833 119.386 521.857 119.278 521.857 119.194C521.857 118.75 521.767 118.366 521.587 118.042C521.419 117.718 521.179 117.466 520.867 117.286C520.567 117.106 520.213 117.016 519.805 117.016C519.313 117.016 518.893 117.124 518.545 117.34C518.197 117.556 517.933 117.868 517.753 118.276C517.573 118.684 517.477 119.188 517.465 119.788C517.465 120.388 517.555 120.898 517.735 121.318C517.915 121.726 518.179 122.038 518.527 122.254C518.887 122.47 519.319 122.578 519.823 122.578C520.351 122.578 520.813 122.47 521.209 122.254C521.605 122.038 521.935 121.708 522.199 121.264L523.873 121.948C523.441 122.692 522.883 123.25 522.199 123.622C521.515 123.994 520.693 124.18 519.733 124.18ZM526.196 121.282C526.46 121.57 526.724 121.822 526.988 122.038C527.264 122.242 527.54 122.398 527.816 122.506C528.092 122.602 528.368 122.65 528.644 122.65C528.992 122.65 529.262 122.572 529.454 122.416C529.658 122.26 529.76 122.044 529.76 121.768C529.76 121.528 529.682 121.324 529.526 121.156C529.37 120.976 529.154 120.826 528.878 120.706C528.602 120.574 528.278 120.442 527.906 120.31C527.534 120.166 527.162 119.998 526.79 119.806C526.43 119.602 526.13 119.338 525.89 119.014C525.662 118.69 525.548 118.282 525.548 117.79C525.548 117.286 525.674 116.866 525.926 116.53C526.19 116.194 526.538 115.948 526.97 115.792C527.414 115.624 527.888 115.54 528.392 115.54C528.848 115.54 529.274 115.606 529.67 115.738C530.078 115.87 530.444 116.044 530.768 116.26C531.092 116.476 531.368 116.722 531.596 116.998L530.516 118.15C530.24 117.826 529.91 117.562 529.526 117.358C529.142 117.154 528.746 117.052 528.338 117.052C528.062 117.052 527.834 117.112 527.654 117.232C527.474 117.352 527.384 117.526 527.384 117.754C527.384 117.946 527.462 118.12 527.618 118.276C527.786 118.42 528.002 118.552 528.266 118.672C528.542 118.792 528.848 118.918 529.184 119.05C529.64 119.23 530.06 119.428 530.444 119.644C530.828 119.86 531.134 120.124 531.362 120.436C531.602 120.748 531.722 121.156 531.722 121.66C531.722 122.44 531.452 123.07 530.912 123.55C530.384 124.018 529.664 124.252 528.752 124.252C528.188 124.252 527.666 124.168 527.186 124C526.718 123.82 526.304 123.592 525.944 123.316C525.596 123.028 525.302 122.728 525.062 122.416L526.196 121.282Z" fill="black"/>
<rect x="660" width="300" height="181" rx="20" fill="#F5F5F5"/>
<path d="M789.568 80V59.968L785.12 60.768V58.24L789.984 56.16H793.536V80H789.568ZM806.117 80.16C804.773 80.16 803.386 80.1173 801.957 80.032C800.527 79.9467 799.205 79.84 797.989 79.712V76.608H806.277C807.109 76.608 807.791 76.4693 808.325 76.192C808.858 75.9147 809.253 75.5413 809.509 75.072C809.765 74.5813 809.893 74.0587 809.893 73.504V71.52C809.893 70.6453 809.658 69.9627 809.189 69.472C808.719 68.96 807.962 68.704 806.917 68.704H804.837C804.047 68.704 803.429 68.8747 802.981 69.216C802.554 69.5573 802.277 70.08 802.149 70.784H798.405L799.077 56.384H812.997V59.936H802.501L802.181 66.624C802.479 66.24 802.927 65.9307 803.525 65.696C804.122 65.4613 804.826 65.344 805.637 65.344H808.293C809.53 65.344 810.554 65.5893 811.365 66.08C812.197 66.5493 812.815 67.2 813.221 68.032C813.647 68.8427 813.861 69.7707 813.861 70.816V74.304C813.861 75.648 813.551 76.7573 812.933 77.632C812.335 78.4853 811.461 79.1253 810.309 79.552C809.157 79.9573 807.759 80.16 806.117 80.16ZM823.723 80.128C822.891 80.128 822.102 80.0533 821.355 79.904C820.63 79.7333 819.99 79.4667 819.435 79.104C818.881 78.72 818.443 78.208 818.123 77.568C817.803 76.928 817.643 76.1173 817.643 75.136V71.84C817.643 71.1573 817.771 70.56 818.027 70.048C818.283 69.5147 818.614 69.0667 819.019 68.704C819.446 68.3413 819.915 68.1067 820.427 68C819.766 67.68 819.265 67.3067 818.923 66.88C818.603 66.432 818.39 65.952 818.283 65.44C818.177 64.928 818.123 64.3947 818.123 63.84V61.12C818.123 59.9253 818.369 58.9653 818.859 58.24C819.35 57.5147 820.001 56.992 820.811 56.672C821.643 56.352 822.55 56.192 823.531 56.192H827.979C829.003 56.192 829.899 56.352 830.667 56.672C831.457 56.992 832.075 57.5147 832.523 58.24C832.993 58.9653 833.227 59.9253 833.227 61.12V63.84C833.227 64.1387 833.185 64.48 833.099 64.864C833.035 65.248 832.918 65.6427 832.747 66.048C832.577 66.432 832.342 66.7627 832.043 67.04C831.766 67.3173 831.425 67.5093 831.019 67.616C831.723 67.7653 832.267 68.0747 832.651 68.544C833.035 68.992 833.302 69.504 833.451 70.08C833.601 70.656 833.675 71.2 833.675 71.712V75.136C833.675 76.4373 833.43 77.4507 832.939 78.176C832.449 78.88 831.777 79.3813 830.923 79.68C830.07 79.9787 829.11 80.128 828.043 80.128H823.723ZM824.363 76.736H827.147C828.107 76.736 828.769 76.544 829.131 76.16C829.515 75.7547 829.707 75.1787 829.707 74.432V72.032C829.707 71.2213 829.505 70.624 829.099 70.24C828.694 69.8347 828.022 69.632 827.083 69.632H824.363C824.065 69.632 823.755 69.6747 823.435 69.76C823.115 69.8453 822.817 69.9947 822.539 70.208C822.262 70.4 822.038 70.6453 821.867 70.944C821.697 71.2427 821.611 71.6053 821.611 72.032V74.432C821.611 75.2853 821.857 75.8827 822.347 76.224C822.859 76.5653 823.531 76.736 824.363 76.736ZM824.363 66.24H827.051C827.649 66.24 828.107 66.1333 828.427 65.92C828.769 65.6853 829.003 65.3867 829.131 65.024C829.281 64.64 829.355 64.2347 829.355 63.808V62.048C829.355 61.0453 829.153 60.384 828.747 60.064C828.363 59.7227 827.83 59.552 827.147 59.552H824.363C823.531 59.552 822.923 59.7333 822.539 60.096C822.177 60.4587 821.995 61.1093 821.995 62.048V63.808C821.995 64.64 822.177 65.2587 822.539 65.664C822.923 66.048 823.531 66.24 824.363 66.24Z" fill="#FF782D"/>
<path d="M773.904 111.4H776.046V124H773.904V111.4ZM784.027 118.96C784.027 118.348 783.901 117.886 783.649 117.574C783.397 117.262 783.007 117.106 782.479 117.106C782.119 117.106 781.801 117.184 781.525 117.34C781.249 117.484 781.033 117.7 780.877 117.988C780.721 118.264 780.643 118.588 780.643 118.96V124H778.699V115.72H780.643V116.998C780.907 116.506 781.243 116.14 781.651 115.9C782.071 115.66 782.569 115.54 783.145 115.54C784.081 115.54 784.795 115.828 785.287 116.404C785.779 116.968 786.025 117.748 786.025 118.744V124H784.027V118.96ZM788.886 121.282C789.15 121.57 789.414 121.822 789.678 122.038C789.954 122.242 790.23 122.398 790.506 122.506C790.782 122.602 791.058 122.65 791.334 122.65C791.682 122.65 791.952 122.572 792.144 122.416C792.348 122.26 792.45 122.044 792.45 121.768C792.45 121.528 792.372 121.324 792.216 121.156C792.06 120.976 791.844 120.826 791.568 120.706C791.292 120.574 790.968 120.442 790.596 120.31C790.224 120.166 789.852 119.998 789.48 119.806C789.12 119.602 788.82 119.338 788.58 119.014C788.352 118.69 788.238 118.282 788.238 117.79C788.238 117.286 788.364 116.866 788.616 116.53C788.88 116.194 789.228 115.948 789.66 115.792C790.104 115.624 790.578 115.54 791.082 115.54C791.538 115.54 791.964 115.606 792.36 115.738C792.768 115.87 793.134 116.044 793.458 116.26C793.782 116.476 794.058 116.722 794.286 116.998L793.206 118.15C792.93 117.826 792.6 117.562 792.216 117.358C791.832 117.154 791.436 117.052 791.028 117.052C790.752 117.052 790.524 117.112 790.344 117.232C790.164 117.352 790.074 117.526 790.074 117.754C790.074 117.946 790.152 118.12 790.308 118.276C790.476 118.42 790.692 118.552 790.956 118.672C791.232 118.792 791.538 118.918 791.874 119.05C792.33 119.23 792.75 119.428 793.134 119.644C793.518 119.86 793.824 120.124 794.052 120.436C794.292 120.748 794.412 121.156 794.412 121.66C794.412 122.44 794.142 123.07 793.602 123.55C793.074 124.018 792.354 124.252 791.442 124.252C790.878 124.252 790.356 124.168 789.876 124C789.408 123.82 788.994 123.592 788.634 123.316C788.286 123.028 787.992 122.728 787.752 122.416L788.886 121.282ZM794.985 115.72H799.683V117.43H794.985V115.72ZM796.371 112.84H798.297V124H796.371V112.84ZM802.949 115.72V124H801.023V115.72H802.949ZM805.415 117.79C805.235 117.646 805.067 117.538 804.911 117.466C804.755 117.394 804.557 117.358 804.317 117.358C803.993 117.358 803.729 117.442 803.525 117.61C803.321 117.778 803.171 118.012 803.075 118.312C802.991 118.6 802.949 118.942 802.949 119.338L802.301 118.96C802.301 118.3 802.421 117.718 802.661 117.214C802.913 116.698 803.231 116.29 803.615 115.99C804.011 115.69 804.419 115.54 804.839 115.54C805.139 115.54 805.421 115.588 805.685 115.684C805.949 115.768 806.171 115.924 806.351 116.152L805.415 117.79ZM809.683 120.76C809.683 121.348 809.809 121.804 810.061 122.128C810.313 122.452 810.697 122.614 811.213 122.614C811.585 122.614 811.909 122.542 812.185 122.398C812.461 122.242 812.677 122.026 812.833 121.75C812.989 121.462 813.067 121.132 813.067 120.76V115.72H815.011V124H813.067V122.722C812.803 123.202 812.461 123.568 812.041 123.82C811.633 124.06 811.141 124.18 810.565 124.18C809.641 124.18 808.927 123.892 808.423 123.316C807.931 122.74 807.685 121.96 807.685 120.976V115.72H809.683V120.76ZM818.79 119.86C818.79 120.388 818.904 120.85 819.132 121.246C819.36 121.63 819.666 121.936 820.05 122.164C820.446 122.392 820.884 122.506 821.364 122.506C821.76 122.506 822.138 122.446 822.498 122.326C822.858 122.206 823.176 122.038 823.452 121.822C823.728 121.606 823.932 121.366 824.064 121.102V123.244C823.776 123.532 823.386 123.76 822.894 123.928C822.402 124.096 821.862 124.18 821.274 124.18C820.422 124.18 819.654 124 818.97 123.64C818.298 123.268 817.764 122.758 817.368 122.11C816.984 121.45 816.792 120.7 816.792 119.86C816.792 119.008 816.984 118.258 817.368 117.61C817.764 116.962 818.298 116.458 818.97 116.098C819.654 115.726 820.422 115.54 821.274 115.54C821.862 115.54 822.402 115.624 822.894 115.792C823.386 115.96 823.776 116.188 824.064 116.476V118.618C823.932 118.342 823.722 118.102 823.434 117.898C823.158 117.682 822.84 117.514 822.48 117.394C822.12 117.274 821.748 117.214 821.364 117.214C820.884 117.214 820.446 117.328 820.05 117.556C819.666 117.784 819.36 118.096 819.132 118.492C818.904 118.888 818.79 119.344 818.79 119.86ZM825.061 115.72H829.759V117.43H825.061V115.72ZM826.447 112.84H828.373V124H826.447V112.84ZM830.469 119.86C830.469 119.008 830.661 118.258 831.045 117.61C831.441 116.962 831.975 116.458 832.647 116.098C833.319 115.726 834.081 115.54 834.933 115.54C835.785 115.54 836.541 115.726 837.201 116.098C837.873 116.458 838.407 116.962 838.803 117.61C839.199 118.258 839.397 119.008 839.397 119.86C839.397 120.7 839.199 121.45 838.803 122.11C838.407 122.758 837.873 123.268 837.201 123.64C836.541 124 835.785 124.18 834.933 124.18C834.081 124.18 833.319 124 832.647 123.64C831.975 123.268 831.441 122.758 831.045 122.11C830.661 121.45 830.469 120.7 830.469 119.86ZM832.467 119.86C832.467 120.376 832.575 120.832 832.791 121.228C833.007 121.612 833.301 121.918 833.673 122.146C834.045 122.362 834.465 122.47 834.933 122.47C835.389 122.47 835.803 122.362 836.175 122.146C836.559 121.918 836.859 121.612 837.075 121.228C837.291 120.832 837.399 120.376 837.399 119.86C837.399 119.344 837.291 118.888 837.075 118.492C836.859 118.096 836.559 117.79 836.175 117.574C835.803 117.358 835.389 117.25 834.933 117.25C834.465 117.25 834.045 117.358 833.673 117.574C833.301 117.79 833.007 118.096 832.791 118.492C832.575 118.888 832.467 119.344 832.467 119.86ZM843.168 115.72V124H841.242V115.72H843.168ZM845.634 117.79C845.454 117.646 845.286 117.538 845.13 117.466C844.974 117.394 844.776 117.358 844.536 117.358C844.212 117.358 843.948 117.442 843.744 117.61C843.54 117.778 843.39 118.012 843.294 118.312C843.21 118.6 843.168 118.942 843.168 119.338L842.52 118.96C842.52 118.3 842.64 117.718 842.88 117.214C843.132 116.698 843.45 116.29 843.834 115.99C844.23 115.69 844.638 115.54 845.058 115.54C845.358 115.54 845.64 115.588 845.904 115.684C846.168 115.768 846.39 115.924 846.57 116.152L845.634 117.79Z" fill="black"/>
<rect x="990" width="300" height="181" rx="20" fill="#F5F5F5"/>
<path d="M1103.07 80V59.968L1098.62 60.768V58.24L1103.48 56.16H1107.04V80H1103.07ZM1117.38 80.128C1116.14 80.128 1115.06 79.9147 1114.14 79.488C1113.23 79.04 1112.52 78.3787 1112.03 77.504C1111.54 76.608 1111.3 75.4987 1111.3 74.176V62.304C1111.3 60.96 1111.54 59.84 1112.03 58.944C1112.54 58.0267 1113.26 57.344 1114.18 56.896C1115.09 56.4267 1116.17 56.192 1117.41 56.192H1122.24C1123.56 56.192 1124.65 56.4373 1125.5 56.928C1126.38 57.4187 1127.03 58.1227 1127.46 59.04C1127.88 59.936 1128.1 61.024 1128.1 62.304V74.176C1128.1 76.1387 1127.57 77.6213 1126.53 78.624C1125.48 79.6267 1124.04 80.128 1122.21 80.128H1117.38ZM1118.3 76.544H1121.18C1122.21 76.544 1122.96 76.2987 1123.42 75.808C1123.92 75.296 1124.16 74.56 1124.16 73.6V62.688C1124.16 61.6427 1123.9 60.896 1123.39 60.448C1122.9 59.9787 1122.22 59.744 1121.34 59.744H1118.18C1117.26 59.744 1116.54 60 1116.03 60.512C1115.52 61.0027 1115.26 61.728 1115.26 62.688V73.6C1115.26 74.6027 1115.53 75.3493 1116.06 75.84C1116.6 76.3093 1117.34 76.544 1118.3 76.544ZM1138.19 80.128C1136.95 80.128 1135.87 79.9147 1134.96 79.488C1134.04 79.04 1133.34 78.3787 1132.85 77.504C1132.35 76.608 1132.11 75.4987 1132.11 74.176V62.304C1132.11 60.96 1132.35 59.84 1132.85 58.944C1133.36 58.0267 1134.07 57.344 1134.99 56.896C1135.91 56.4267 1136.98 56.192 1138.22 56.192H1143.05C1144.38 56.192 1145.46 56.4373 1146.32 56.928C1147.19 57.4187 1147.84 58.1227 1148.27 59.04C1148.7 59.936 1148.91 61.024 1148.91 62.304V74.176C1148.91 76.1387 1148.39 77.6213 1147.34 78.624C1146.3 79.6267 1144.86 80.128 1143.02 80.128H1138.19ZM1139.12 76.544H1142C1143.02 76.544 1143.77 76.2987 1144.24 75.808C1144.73 75.296 1144.97 74.56 1144.97 73.6V62.688C1144.97 61.6427 1144.72 60.896 1144.21 60.448C1143.71 59.9787 1143.03 59.744 1142.16 59.744H1138.99C1138.07 59.744 1137.36 60 1136.85 60.512C1136.33 61.0027 1136.08 61.728 1136.08 62.688V73.6C1136.08 74.6027 1136.34 75.3493 1136.88 75.84C1137.41 76.3093 1138.16 76.544 1139.12 76.544ZM1157.75 80L1172.06 56.576H1174.68L1160.47 80H1157.75ZM1156.38 68.832C1154.82 68.832 1153.72 68.48 1153.08 67.776C1152.46 67.0507 1152.15 66.0053 1152.15 64.64V60.768C1152.15 59.4027 1152.46 58.368 1153.08 57.664C1153.7 56.9387 1154.82 56.576 1156.44 56.576H1159.67C1161.25 56.576 1162.35 56.9387 1162.97 57.664C1163.61 58.368 1163.93 59.4027 1163.93 60.768V64.64C1163.93 66.0053 1163.61 67.0507 1162.97 67.776C1162.35 68.48 1161.23 68.832 1159.61 68.832H1156.38ZM1156.86 66.272H1159.16C1159.99 66.272 1160.57 66.112 1160.89 65.792C1161.21 65.4507 1161.37 64.8747 1161.37 64.064V61.344C1161.37 60.4907 1161.21 59.9147 1160.89 59.616C1160.59 59.296 1160.04 59.136 1159.23 59.136H1156.92C1156.2 59.136 1155.64 59.2747 1155.26 59.552C1154.89 59.8293 1154.71 60.4267 1154.71 61.344V64.064C1154.71 64.832 1154.86 65.3973 1155.16 65.76C1155.48 66.1013 1156.05 66.272 1156.86 66.272ZM1172.99 79.904C1171.43 79.904 1170.33 79.552 1169.69 78.848C1169.07 78.1227 1168.76 77.0773 1168.76 75.712V71.84C1168.76 70.4747 1169.07 69.44 1169.69 68.736C1170.31 68.0107 1171.43 67.648 1173.05 67.648H1176.31C1177.89 67.648 1178.99 68.0107 1179.61 68.736C1180.25 69.44 1180.57 70.4747 1180.57 71.84V75.712C1180.57 77.0773 1180.25 78.1227 1179.61 78.848C1178.99 79.552 1177.87 79.904 1176.25 79.904H1172.99ZM1173.47 77.344H1175.74C1176.59 77.344 1177.18 77.184 1177.5 76.864C1177.84 76.5227 1178.01 75.9467 1178.01 75.136V72.416C1178.01 71.5627 1177.84 70.9867 1177.5 70.688C1177.18 70.368 1176.61 70.208 1175.8 70.208H1173.53C1172.83 70.208 1172.28 70.3467 1171.9 70.624C1171.51 70.9013 1171.32 71.4987 1171.32 72.416V75.136C1171.32 75.904 1171.47 76.4693 1171.77 76.832C1172.09 77.1733 1172.65 77.344 1173.47 77.344Z" fill="#FF782D"/>
<path d="M1077.23 119.95C1077.51 120.43 1077.8 120.856 1078.11 121.228C1078.44 121.588 1078.79 121.87 1079.18 122.074C1079.56 122.266 1079.99 122.362 1080.47 122.362C1081.05 122.362 1081.52 122.206 1081.88 121.894C1082.24 121.582 1082.42 121.18 1082.42 120.688C1082.42 120.22 1082.3 119.848 1082.07 119.572C1081.85 119.284 1081.53 119.044 1081.12 118.852C1080.72 118.648 1080.26 118.45 1079.73 118.258C1079.42 118.15 1079.07 118.006 1078.69 117.826C1078.31 117.634 1077.94 117.4 1077.59 117.124C1077.24 116.836 1076.96 116.488 1076.73 116.08C1076.5 115.66 1076.39 115.156 1076.39 114.568C1076.39 113.896 1076.56 113.308 1076.91 112.804C1077.26 112.288 1077.72 111.892 1078.31 111.616C1078.91 111.328 1079.59 111.184 1080.35 111.184C1081.09 111.184 1081.74 111.316 1082.29 111.58C1082.84 111.844 1083.3 112.18 1083.68 112.588C1084.06 112.996 1084.36 113.422 1084.58 113.866L1082.85 114.838C1082.69 114.526 1082.49 114.238 1082.25 113.974C1082.01 113.698 1081.73 113.482 1081.41 113.326C1081.1 113.158 1080.73 113.074 1080.31 113.074C1079.72 113.074 1079.29 113.212 1079.01 113.488C1078.74 113.752 1078.6 114.064 1078.6 114.424C1078.6 114.748 1078.7 115.042 1078.89 115.306C1079.09 115.558 1079.4 115.798 1079.82 116.026C1080.24 116.254 1080.79 116.488 1081.46 116.728C1081.83 116.86 1082.21 117.028 1082.58 117.232C1082.96 117.436 1083.31 117.694 1083.62 118.006C1083.93 118.306 1084.18 118.66 1084.36 119.068C1084.55 119.476 1084.65 119.956 1084.65 120.508C1084.65 121.096 1084.53 121.624 1084.31 122.092C1084.08 122.56 1083.77 122.956 1083.37 123.28C1082.97 123.592 1082.52 123.832 1082.02 124C1081.53 124.18 1081.01 124.27 1080.47 124.27C1079.73 124.27 1079.04 124.126 1078.4 123.838C1077.78 123.538 1077.23 123.142 1076.76 122.65C1076.3 122.158 1075.92 121.624 1075.65 121.048L1077.23 119.95ZM1087.89 121.426C1087.89 121.702 1087.96 121.942 1088.09 122.146C1088.22 122.338 1088.4 122.482 1088.63 122.578C1088.87 122.674 1089.14 122.722 1089.44 122.722C1089.82 122.722 1090.17 122.644 1090.48 122.488C1090.81 122.332 1091.06 122.104 1091.26 121.804C1091.46 121.492 1091.56 121.132 1091.56 120.724L1091.85 121.804C1091.85 122.332 1091.69 122.776 1091.38 123.136C1091.08 123.484 1090.7 123.748 1090.23 123.928C1089.77 124.096 1089.31 124.18 1088.83 124.18C1088.31 124.18 1087.83 124.078 1087.39 123.874C1086.94 123.67 1086.59 123.37 1086.32 122.974C1086.06 122.578 1085.93 122.098 1085.93 121.534C1085.93 120.73 1086.21 120.094 1086.77 119.626C1087.34 119.146 1088.14 118.906 1089.17 118.906C1089.72 118.906 1090.19 118.966 1090.59 119.086C1091 119.206 1091.33 119.35 1091.6 119.518C1091.86 119.674 1092.05 119.818 1092.16 119.95V120.94C1091.78 120.676 1091.39 120.484 1090.97 120.364C1090.55 120.244 1090.1 120.184 1089.64 120.184C1089.23 120.184 1088.9 120.238 1088.65 120.346C1088.39 120.442 1088.2 120.58 1088.07 120.76C1087.95 120.94 1087.89 121.162 1087.89 121.426ZM1087.28 117.88L1086.49 116.512C1086.86 116.284 1087.34 116.062 1087.93 115.846C1088.53 115.63 1089.21 115.522 1089.98 115.522C1090.66 115.522 1091.26 115.624 1091.78 115.828C1092.31 116.032 1092.72 116.326 1093.02 116.71C1093.32 117.082 1093.47 117.544 1093.47 118.096V124H1091.56V118.474C1091.56 118.21 1091.51 117.994 1091.42 117.826C1091.33 117.658 1091.21 117.52 1091.06 117.412C1090.9 117.304 1090.72 117.226 1090.5 117.178C1090.28 117.13 1090.05 117.106 1089.8 117.106C1089.41 117.106 1089.05 117.154 1088.7 117.25C1088.36 117.334 1088.07 117.442 1087.82 117.574C1087.58 117.694 1087.4 117.796 1087.28 117.88ZM1094.58 115.72H1099.28V117.43H1094.58V115.72ZM1095.97 112.84H1097.9V124H1095.97V112.84ZM1100.55 112.426C1100.55 112.09 1100.67 111.808 1100.91 111.58C1101.16 111.352 1101.45 111.238 1101.77 111.238C1102.12 111.238 1102.41 111.352 1102.64 111.58C1102.88 111.808 1103 112.09 1103 112.426C1103 112.75 1102.88 113.032 1102.64 113.272C1102.41 113.5 1102.12 113.614 1101.77 113.614C1101.45 113.614 1101.16 113.5 1100.91 113.272C1100.67 113.032 1100.55 112.75 1100.55 112.426ZM1100.82 115.72H1102.73V124H1100.82V115.72ZM1105.78 121.282C1106.05 121.57 1106.31 121.822 1106.57 122.038C1106.85 122.242 1107.13 122.398 1107.4 122.506C1107.68 122.602 1107.95 122.65 1108.23 122.65C1108.58 122.65 1108.85 122.572 1109.04 122.416C1109.24 122.26 1109.35 122.044 1109.35 121.768C1109.35 121.528 1109.27 121.324 1109.11 121.156C1108.96 120.976 1108.74 120.826 1108.46 120.706C1108.19 120.574 1107.86 120.442 1107.49 120.31C1107.12 120.166 1106.75 119.998 1106.38 119.806C1106.02 119.602 1105.72 119.338 1105.48 119.014C1105.25 118.69 1105.13 118.282 1105.13 117.79C1105.13 117.286 1105.26 116.866 1105.51 116.53C1105.78 116.194 1106.12 115.948 1106.56 115.792C1107 115.624 1107.47 115.54 1107.98 115.54C1108.43 115.54 1108.86 115.606 1109.26 115.738C1109.66 115.87 1110.03 116.044 1110.35 116.26C1110.68 116.476 1110.95 116.722 1111.18 116.998L1110.1 118.15C1109.83 117.826 1109.5 117.562 1109.11 117.358C1108.73 117.154 1108.33 117.052 1107.92 117.052C1107.65 117.052 1107.42 117.112 1107.24 117.232C1107.06 117.352 1106.97 117.526 1106.97 117.754C1106.97 117.946 1107.05 118.12 1107.2 118.276C1107.37 118.42 1107.59 118.552 1107.85 118.672C1108.13 118.792 1108.43 118.918 1108.77 119.05C1109.23 119.23 1109.65 119.428 1110.03 119.644C1110.41 119.86 1110.72 120.124 1110.95 120.436C1111.19 120.748 1111.31 121.156 1111.31 121.66C1111.31 122.44 1111.04 123.07 1110.5 123.55C1109.97 124.018 1109.25 124.252 1108.34 124.252C1107.77 124.252 1107.25 124.168 1106.77 124C1106.3 123.82 1105.89 123.592 1105.53 123.316C1105.18 123.028 1104.89 122.728 1104.65 122.416L1105.78 121.282ZM1112.35 115.72H1117.1V117.43H1112.35V115.72ZM1116.89 112.048C1116.77 111.856 1116.63 111.73 1116.47 111.67C1116.33 111.61 1116.18 111.58 1116.02 111.58C1115.84 111.58 1115.69 111.628 1115.55 111.724C1115.43 111.82 1115.34 111.976 1115.27 112.192C1115.19 112.408 1115.16 112.69 1115.16 113.038V124H1113.25V112.66C1113.25 112.012 1113.35 111.478 1113.56 111.058C1113.77 110.626 1114.08 110.302 1114.47 110.086C1114.87 109.858 1115.36 109.744 1115.93 109.744C1116.26 109.744 1116.54 109.786 1116.78 109.87C1117.02 109.954 1117.22 110.056 1117.39 110.176C1117.57 110.296 1117.71 110.416 1117.8 110.536L1116.89 112.048ZM1119.81 121.426C1119.81 121.702 1119.88 121.942 1120.01 122.146C1120.14 122.338 1120.32 122.482 1120.55 122.578C1120.79 122.674 1121.06 122.722 1121.36 122.722C1121.74 122.722 1122.09 122.644 1122.4 122.488C1122.73 122.332 1122.99 122.104 1123.18 121.804C1123.38 121.492 1123.48 121.132 1123.48 120.724L1123.77 121.804C1123.77 122.332 1123.62 122.776 1123.3 123.136C1123 123.484 1122.62 123.748 1122.15 123.928C1121.7 124.096 1121.23 124.18 1120.75 124.18C1120.23 124.18 1119.75 124.078 1119.31 123.874C1118.86 123.67 1118.51 123.37 1118.25 122.974C1117.98 122.578 1117.85 122.098 1117.85 121.534C1117.85 120.73 1118.13 120.094 1118.7 119.626C1119.26 119.146 1120.06 118.906 1121.09 118.906C1121.64 118.906 1122.12 118.966 1122.51 119.086C1122.92 119.206 1123.26 119.35 1123.52 119.518C1123.78 119.674 1123.97 119.818 1124.08 119.95V120.94C1123.71 120.676 1123.31 120.484 1122.89 120.364C1122.47 120.244 1122.03 120.184 1121.56 120.184C1121.15 120.184 1120.82 120.238 1120.57 120.346C1120.32 120.442 1120.12 120.58 1119.99 120.76C1119.87 120.94 1119.81 121.162 1119.81 121.426ZM1119.2 117.88L1118.41 116.512C1118.78 116.284 1119.26 116.062 1119.85 115.846C1120.45 115.63 1121.13 115.522 1121.9 115.522C1122.58 115.522 1123.18 115.624 1123.7 115.828C1124.23 116.032 1124.64 116.326 1124.94 116.71C1125.24 117.082 1125.39 117.544 1125.39 118.096V124H1123.48V118.474C1123.48 118.21 1123.44 117.994 1123.34 117.826C1123.26 117.658 1123.14 117.52 1122.98 117.412C1122.82 117.304 1122.64 117.226 1122.42 117.178C1122.21 117.13 1121.97 117.106 1121.72 117.106C1121.34 117.106 1120.97 117.154 1120.62 117.25C1120.29 117.334 1119.99 117.442 1119.74 117.574C1119.5 117.694 1119.32 117.796 1119.2 117.88ZM1128.95 119.86C1128.95 120.388 1129.07 120.85 1129.3 121.246C1129.52 121.63 1129.83 121.936 1130.21 122.164C1130.61 122.392 1131.05 122.506 1131.53 122.506C1131.92 122.506 1132.3 122.446 1132.66 122.326C1133.02 122.206 1133.34 122.038 1133.62 121.822C1133.89 121.606 1134.1 121.366 1134.23 121.102V123.244C1133.94 123.532 1133.55 123.76 1133.06 123.928C1132.57 124.096 1132.03 124.18 1131.44 124.18C1130.59 124.18 1129.82 124 1129.13 123.64C1128.46 123.268 1127.93 122.758 1127.53 122.11C1127.15 121.45 1126.96 120.7 1126.96 119.86C1126.96 119.008 1127.15 118.258 1127.53 117.61C1127.93 116.962 1128.46 116.458 1129.13 116.098C1129.82 115.726 1130.59 115.54 1131.44 115.54C1132.03 115.54 1132.57 115.624 1133.06 115.792C1133.55 115.96 1133.94 116.188 1134.23 116.476V118.618C1134.1 118.342 1133.89 118.102 1133.6 117.898C1133.32 117.682 1133 117.514 1132.64 117.394C1132.28 117.274 1131.91 117.214 1131.53 117.214C1131.05 117.214 1130.61 117.328 1130.21 117.556C1129.83 117.784 1129.52 118.096 1129.3 118.492C1129.07 118.888 1128.95 119.344 1128.95 119.86ZM1135.22 115.72H1139.92V117.43H1135.22V115.72ZM1136.61 112.84H1138.54V124H1136.61V112.84ZM1141.19 112.426C1141.19 112.09 1141.31 111.808 1141.55 111.58C1141.8 111.352 1142.09 111.238 1142.42 111.238C1142.76 111.238 1143.05 111.352 1143.28 111.58C1143.52 111.808 1143.64 112.09 1143.64 112.426C1143.64 112.75 1143.52 113.032 1143.28 113.272C1143.05 113.5 1142.76 113.614 1142.42 113.614C1142.09 113.614 1141.8 113.5 1141.55 113.272C1141.31 113.032 1141.19 112.75 1141.19 112.426ZM1141.46 115.72H1143.37V124H1141.46V115.72ZM1145.41 119.86C1145.41 119.008 1145.61 118.258 1145.99 117.61C1146.39 116.962 1146.92 116.458 1147.59 116.098C1148.26 115.726 1149.03 115.54 1149.88 115.54C1150.73 115.54 1151.49 115.726 1152.15 116.098C1152.82 116.458 1153.35 116.962 1153.75 117.61C1154.14 118.258 1154.34 119.008 1154.34 119.86C1154.34 120.7 1154.14 121.45 1153.75 122.11C1153.35 122.758 1152.82 123.268 1152.15 123.64C1151.49 124 1150.73 124.18 1149.88 124.18C1149.03 124.18 1148.26 124 1147.59 123.64C1146.92 123.268 1146.39 122.758 1145.99 122.11C1145.61 121.45 1145.41 120.7 1145.41 119.86ZM1147.41 119.86C1147.41 120.376 1147.52 120.832 1147.74 121.228C1147.95 121.612 1148.25 121.918 1148.62 122.146C1148.99 122.362 1149.41 122.47 1149.88 122.47C1150.33 122.47 1150.75 122.362 1151.12 122.146C1151.5 121.918 1151.8 121.612 1152.02 121.228C1152.24 120.832 1152.34 120.376 1152.34 119.86C1152.34 119.344 1152.24 118.888 1152.02 118.492C1151.8 118.096 1151.5 117.79 1151.12 117.574C1150.75 117.358 1150.33 117.25 1149.88 117.25C1149.41 117.25 1148.99 117.358 1148.62 117.574C1148.25 117.79 1147.95 118.096 1147.74 118.492C1147.52 118.888 1147.41 119.344 1147.41 119.86ZM1161.52 118.96C1161.52 118.348 1161.39 117.886 1161.14 117.574C1160.89 117.262 1160.5 117.106 1159.97 117.106C1159.61 117.106 1159.29 117.184 1159.01 117.34C1158.74 117.484 1158.52 117.7 1158.37 117.988C1158.21 118.264 1158.13 118.588 1158.13 118.96V124H1156.19V115.72H1158.13V116.998C1158.4 116.506 1158.73 116.14 1159.14 115.9C1159.56 115.66 1160.06 115.54 1160.63 115.54C1161.57 115.54 1162.28 115.828 1162.78 116.404C1163.27 116.968 1163.51 117.748 1163.51 118.744V124H1161.52V118.96ZM1174.15 117.988H1176.45L1180.72 124H1178.16L1174.15 117.988ZM1171.55 111.4H1173.68V124H1171.55V111.4ZM1172.81 113.236V111.4H1175.44C1176.35 111.4 1177.15 111.562 1177.82 111.886C1178.5 112.21 1179.03 112.666 1179.4 113.254C1179.77 113.83 1179.96 114.514 1179.96 115.306C1179.96 116.098 1179.77 116.788 1179.4 117.376C1179.03 117.964 1178.5 118.42 1177.82 118.744C1177.15 119.068 1176.35 119.23 1175.44 119.23H1172.81V117.484H1175.35C1175.83 117.484 1176.25 117.4 1176.61 117.232C1176.98 117.064 1177.27 116.824 1177.48 116.512C1177.68 116.188 1177.78 115.804 1177.78 115.36C1177.78 114.904 1177.68 114.52 1177.48 114.208C1177.27 113.896 1176.98 113.656 1176.61 113.488C1176.25 113.32 1175.83 113.236 1175.35 113.236H1172.81ZM1183.32 121.426C1183.32 121.702 1183.39 121.942 1183.52 122.146C1183.65 122.338 1183.83 122.482 1184.06 122.578C1184.3 122.674 1184.57 122.722 1184.87 122.722C1185.25 122.722 1185.6 122.644 1185.91 122.488C1186.24 122.332 1186.5 122.104 1186.69 121.804C1186.89 121.492 1186.99 121.132 1186.99 120.724L1187.28 121.804C1187.28 122.332 1187.13 122.776 1186.81 123.136C1186.51 123.484 1186.13 123.748 1185.66 123.928C1185.21 124.096 1184.74 124.18 1184.26 124.18C1183.74 124.18 1183.26 124.078 1182.82 123.874C1182.37 123.67 1182.02 123.37 1181.76 122.974C1181.49 122.578 1181.36 122.098 1181.36 121.534C1181.36 120.73 1181.64 120.094 1182.21 119.626C1182.77 119.146 1183.57 118.906 1184.6 118.906C1185.15 118.906 1185.63 118.966 1186.02 119.086C1186.43 119.206 1186.77 119.35 1187.03 119.518C1187.29 119.674 1187.48 119.818 1187.59 119.95V120.94C1187.22 120.676 1186.82 120.484 1186.4 120.364C1185.98 120.244 1185.54 120.184 1185.07 120.184C1184.66 120.184 1184.33 120.238 1184.08 120.346C1183.83 120.442 1183.63 120.58 1183.5 120.76C1183.38 120.94 1183.32 121.162 1183.32 121.426ZM1182.71 117.88L1181.92 116.512C1182.29 116.284 1182.77 116.062 1183.36 115.846C1183.96 115.63 1184.64 115.522 1185.41 115.522C1186.09 115.522 1186.69 115.624 1187.21 115.828C1187.74 116.032 1188.15 116.326 1188.45 116.71C1188.75 117.082 1188.9 117.544 1188.9 118.096V124H1186.99V118.474C1186.99 118.21 1186.95 117.994 1186.85 117.826C1186.77 117.658 1186.65 117.52 1186.49 117.412C1186.33 117.304 1186.15 117.226 1185.93 117.178C1185.72 117.13 1185.48 117.106 1185.23 117.106C1184.85 117.106 1184.48 117.154 1184.13 117.25C1183.8 117.334 1183.5 117.442 1183.25 117.574C1183.01 117.694 1182.83 117.796 1182.71 117.88ZM1190.02 115.72H1194.71V117.43H1190.02V115.72ZM1191.4 112.84H1193.33V124H1191.4V112.84ZM1199.65 124.18C1198.81 124.18 1198.07 124 1197.42 123.64C1196.79 123.28 1196.29 122.776 1195.95 122.128C1195.6 121.48 1195.42 120.724 1195.42 119.86C1195.42 118.984 1195.6 118.222 1195.95 117.574C1196.31 116.926 1196.81 116.428 1197.46 116.08C1198.11 115.72 1198.87 115.54 1199.74 115.54C1200.62 115.54 1201.36 115.708 1201.98 116.044C1202.59 116.38 1203.06 116.866 1203.38 117.502C1203.72 118.126 1203.88 118.882 1203.88 119.77C1203.88 119.866 1203.88 119.968 1203.87 120.076C1203.87 120.184 1203.86 120.262 1203.85 120.31H1196.58V118.978H1202.19L1201.6 119.806C1201.63 119.734 1201.67 119.638 1201.71 119.518C1201.75 119.386 1201.78 119.278 1201.78 119.194C1201.78 118.75 1201.69 118.366 1201.51 118.042C1201.34 117.718 1201.1 117.466 1200.79 117.286C1200.49 117.106 1200.13 117.016 1199.73 117.016C1199.23 117.016 1198.81 117.124 1198.47 117.34C1198.12 117.556 1197.85 117.868 1197.67 118.276C1197.49 118.684 1197.4 119.188 1197.39 119.788C1197.39 120.388 1197.48 120.898 1197.66 121.318C1197.84 121.726 1198.1 122.038 1198.45 122.254C1198.81 122.47 1199.24 122.578 1199.74 122.578C1200.27 122.578 1200.73 122.47 1201.13 122.254C1201.53 122.038 1201.86 121.708 1202.12 121.264L1203.79 121.948C1203.36 122.692 1202.8 123.25 1202.12 123.622C1201.44 123.994 1200.61 124.18 1199.65 124.18Z" fill="black"/>
</svg>
